<?xml version="1.0" encoding="UTF-8"?>
<svg id="Layer_1" data-name="Layer 1" xmlns="http://www.w3.org/2000/svg" viewBox="0 0 354.86 281.29">
  <defs>
    <style>
      .cls-1 {
        fill: #fff;
      }
    </style>
  </defs>
  <path class="cls-1" d="M248.4,98.28V0h-50.02v64.7h-75.76l34.4,41.76h41.36v99.57c0,18.05,2.44,32.12,7.34,42.22,4.89,10.1,10.94,17.59,18.12,22.48,7.18,4.9,14.76,7.87,22.72,8.95,7.95,1.07,14.98,1.61,21.11,1.61,7.34,0,14.37-.31,21.11-.92,6.72-.61,12.08-1.22,16.06-1.83v-44.05c-2.45.92-6.27,1.38-11.47,1.38h-13.77c-4.9,0-9.26-.45-13.08-1.37-3.83-.92-7.11-2.82-9.87-5.72-2.75-2.9-4.82-7.08-6.19-12.57-1.38-5.49-2.07-12.8-2.07-21.95v-87.79h72.05l34.4-41.76h-78.79l-27.66,33.58Z"/>
  <polygon class="cls-1" points="78.79 106.46 113.19 64.7 34.4 64.7 0 106.46 78.79 106.46"/>
</svg>