<?xml version="1.0" encoding="UTF-8"?>
<svg id="Layer_1" xmlns="http://www.w3.org/2000/svg" version="1.1" viewBox="0 0 597.65 90.61">
  <!-- Generator: Adobe Illustrator 29.6.1, SVG Export Plug-In . SVG Version: 2.1.1 Build 9)  -->
  <defs>
    <style>
      .st0 {
        fill: #fff;
      }

      .st1 {
        fill: #f5aa1e;
      }
    </style>
  </defs>
  <path class="st0" d="M82.7,32.26V5.16h-13.79v17.84h-20.89l9.48,11.51h11.4v27.45c0,4.98.67,8.86,2.02,11.64,1.35,2.78,3.02,4.85,5,6.2,1.98,1.35,4.07,2.17,6.26,2.47,2.19.29,4.13.44,5.82.44,2.02,0,3.96-.09,5.82-.25,1.85-.17,3.33-.34,4.43-.51v-12.14c-.68.25-1.73.38-3.16.38h-3.8c-1.35,0-2.55-.13-3.61-.38-1.06-.25-1.96-.78-2.72-1.58-.76-.8-1.33-1.95-1.71-3.47-.38-1.51-.57-3.53-.57-6.05v-24.2h19.87l9.48-11.51h-21.72l-7.63,9.26Z"/>
  <path class="st0" d="M206.93,53.49c0,5.06-1.14,9.3-3.41,12.72-2.27,3.42-5.76,5.12-10.46,5.12-2.4,0-4.4-.46-6.01-1.39-1.61-.93-2.89-2.17-3.84-3.73-.95-1.56-1.63-3.44-2.04-5.63-.41-2.19-.62-4.55-.62-7.08v-30.49h-13.5v35.04c0,4.05.27,7.42.8,10.12.54,2.7,1.5,5.15,2.91,7.34,1.65,2.45,3.9,4.39,6.75,5.82,2.85,1.43,6.38,2.15,10.59,2.15s8.05-.82,11.27-2.47,5.74-4.07,7.55-7.27v8.22h13.5V23h-13.5v30.49Z"/>
  <path class="st0" d="M276.13,54.26c-1.67-1.27-3.58-2.33-5.72-3.18-2.14-.85-4.32-1.65-6.55-2.42-2.98-1.02-6.14-1.89-8.37-2.61-2.23-.72-4.09-1.4-5.58-2.03-1.49-.63-2.6-1.36-3.35-2.16-.74-.8-1.12-1.84-1.12-3.11,0-2.12.91-3.73,2.72-4.83,1.81-1.1,4.02-1.65,6.62-1.65,3.72,0,6.95.83,8.58,2.48,1.63,1.65,2.44,3.88,2.44,6.67h14.78c0-2.88-.65-5.55-1.95-8.01-1.3-2.46-3.07-4.58-5.3-6.36-2.23-1.78-4.86-3.18-7.88-4.2-3.02-1.02-6.25-1.53-9.69-1.53s-6.48.36-9.41,1.08c-2.93.72-5.51,1.82-7.74,3.31-2.23,1.48-4,3.29-5.3,5.4-1.3,2.12-1.95,4.58-1.95,7.37,0,2.54.37,4.71,1.12,6.49.74,1.78,1.81,3.26,3.21,4.45,1.39,1.19,3.04,2.22,4.95,3.11,1.9.89,3.97,1.72,6.2,2.48,3.44,1.19,6.97,2.16,9.48,2.92,2.51.76,4.6,1.51,6.27,2.23,1.67.72,2.93,1.51,3.76,2.35.84.85,1.26,1.95,1.26,3.31,0,2.54-1.02,4.32-3.07,5.34-2.05,1.02-4.56,1.53-7.53,1.53-3.62,0-7.18-.78-9.55-2.35-2.37-1.57-3.56-4.3-3.56-8.2h-14.78c0,3.48.72,6.55,2.16,9.22,1.44,2.67,3.39,4.92,5.86,6.74,2.46,1.82,5.27,3.2,8.43,4.13,3.16.93,6.51,1.4,10.04,1.4s6.88-.36,10.04-1.08c3.16-.72,5.93-1.82,8.3-3.31,2.37-1.48,4.23-3.37,5.58-5.66,1.35-2.29,2.02-4.96,2.02-8.01,0-2.71-.49-4.96-1.46-6.74-.98-1.78-2.3-3.31-3.97-4.58"/>
  <path class="st0" d="M385.88,68.67c-1.83,1.69-4.68,2.53-8.58,2.53-2.84,0-5.27-.51-7.3-1.52-2.03-1.01-3.69-2.36-4.99-4.05-1.3-1.69-2.25-3.67-2.86-5.95-.61-2.28-.91-4.68-.91-7.21s.3-4.91.91-7.15c.61-2.23,1.56-4.22,2.86-5.95,1.3-1.73,2.88-3.1,4.74-4.11,1.86-1.01,4.09-1.52,6.69-1.52,4.54,0,7.8.99,9.79,2.97,1.99,1.98,3.18,4.58,3.59,7.78h13.26c-.24-2.87-.91-5.67-2.01-8.41-1.09-2.74-2.72-5.19-4.87-7.34-2.15-2.15-4.87-3.9-8.15-5.25-3.28-1.35-7.24-2.02-11.86-2.02s-8.68.87-12.16,2.59c-3.49,1.73-6.43,4.03-8.82,6.9-2.39,2.87-4.2,6.18-5.41,9.93-1.22,3.75-1.83,7.61-1.83,11.58s.61,7.93,1.83,11.64c1.22,3.71,3.02,7,5.41,9.87,2.39,2.87,5.35,5.17,8.88,6.9,3.53,1.73,7.6,2.59,12.22,2.59,4.14,0,7.76-.55,10.89-1.64,3.12-1.1,5.8-2.64,8.03-4.62,2.23-1.98,3.99-4.3,5.29-6.96,1.3-2.66,2.19-5.5,2.68-8.54h-13.26c-.89,2.95-2.25,5.27-4.07,6.96"/>
  <path class="st0" d="M464.04,30.72c-2.74-2.87-6.03-5.12-9.87-6.77-3.84-1.65-8.12-2.47-12.84-2.47s-8.98.82-12.78,2.47c-3.8,1.64-7.04,3.9-9.74,6.77-2.7,2.87-4.79,6.18-6.26,9.93-1.48,3.75-2.21,7.7-2.21,11.83s.74,8.18,2.21,11.89c1.47,3.71,3.56,7,6.26,9.87,2.7,2.87,5.95,5.12,9.74,6.77,3.8,1.64,8.05,2.47,12.78,2.47s9-.82,12.84-2.47c3.84-1.64,7.13-3.9,9.87-6.77,2.74-2.87,4.85-6.15,6.33-9.87,1.47-3.71,2.21-7.67,2.21-11.89s-.74-8.07-2.21-11.83c-1.48-3.75-3.59-7.06-6.33-9.93M457.53,59.69c-.84,2.28-2.02,4.26-3.54,5.95-1.52,1.69-3.35,3.04-5.5,4.05-2.15,1.01-4.53,1.52-7.15,1.52s-4.98-.51-7.09-1.52c-2.11-1.01-3.92-2.36-5.44-4.05-1.52-1.69-2.68-3.67-3.48-5.95-.8-2.28-1.2-4.68-1.2-7.21s.4-4.93,1.2-7.21c.8-2.28,1.96-4.26,3.48-5.95,1.52-1.69,3.33-3.04,5.44-4.05,2.11-1.01,4.47-1.52,7.09-1.52s5,.51,7.15,1.52c2.15,1.01,3.98,2.36,5.5,4.05,1.52,1.69,2.7,3.67,3.54,5.95.84,2.28,1.27,4.68,1.27,7.21s-.42,4.93-1.27,7.21"/>
  <path class="st0" d="M578.8,51.65c.04-1.39.06-2.59.06-3.61,0-3.8-.7-7.29-2.09-10.5-1.39-3.2-3.33-6.01-5.82-8.41-2.49-2.4-5.4-4.28-8.73-5.63-3.33-1.35-6.89-2.02-10.69-2.02-4.64,0-8.77.78-12.4,2.34-3.63,1.56-6.66,3.73-9.11,6.52-2.45,2.78-4.32,6.07-5.63,9.87-1.31,3.8-1.96,7.89-1.96,12.27s.61,8.35,1.83,12.14c1.22,3.8,3.06,7.09,5.5,9.87,2.45,2.78,5.5,4.98,9.17,6.58,3.67,1.6,7.99,2.4,12.97,2.4,3.8,0,7.21-.53,10.25-1.58,3.04-1.05,5.69-2.47,7.97-4.24,2.28-1.77,4.11-3.82,5.5-6.14,1.39-2.32,2.3-4.74,2.72-7.27h-13.92c-.84,2.11-2.15,3.92-3.92,5.44-1.77,1.52-4.64,2.28-8.6,2.28-2.87,0-5.27-.4-7.21-1.2-1.94-.8-3.52-1.9-4.74-3.29-1.22-1.39-2.13-3.02-2.72-4.87-.59-1.85-.97-3.84-1.14-5.95h42.13c.34-1.94.53-3.61.57-5M536.1,46.4c0-4.81,1.43-8.43,4.3-10.88,2.87-2.44,6.45-3.67,10.75-3.67s7.65,1.29,10.31,3.86c2.66,2.57,3.99,6.14,3.99,10.69h-29.35Z"/>
  <polygon class="st0" points="130.66 32.58 130.66 23 116.87 23 116.87 81.96 130.66 81.96 130.66 34.51 152.82 34.51 162.3 23 138.55 23 130.66 32.58"/>
  <polygon class="st0" points="526.3 23 502.56 23 494.67 32.58 494.67 23 480.88 23 480.88 81.96 494.67 81.96 494.67 34.51 516.82 34.51 526.3 23"/>
  <path class="st0" d="M335.92,54.26c-1.67-1.27-3.58-2.33-5.72-3.18-2.14-.85-4.32-1.65-6.55-2.42-2.98-1.02-6.14-1.89-8.37-2.61-2.23-.72-4.09-1.4-5.58-2.03-1.49-.63-2.6-1.36-3.35-2.16-.75-.8-1.12-1.84-1.12-3.11,0-2.12.91-3.73,2.72-4.83,1.81-1.1,4.02-1.65,6.62-1.65,3.72,0,6.95.83,8.58,2.48,1.62,1.65,2.44,3.88,2.44,6.67h14.78c0-2.88-.65-5.55-1.95-8.01-1.3-2.46-3.07-4.58-5.3-6.36-2.23-1.78-4.86-3.18-7.88-4.2-3.02-1.02-6.25-1.53-9.69-1.53s-6.48.36-9.41,1.08c-2.93.72-5.51,1.82-7.74,3.31-2.23,1.48-4,3.29-5.3,5.4-1.3,2.12-1.95,4.58-1.95,7.37,0,2.54.37,4.71,1.12,6.49.74,1.78,1.81,3.26,3.21,4.45,1.39,1.19,3.04,2.22,4.95,3.11,1.9.89,3.97,1.72,6.2,2.48,3.44,1.19,6.97,2.16,9.48,2.92,2.51.76,4.6,1.51,6.27,2.23,1.67.72,2.93,1.51,3.76,2.35.84.85,1.26,1.95,1.26,3.31,0,2.54-1.02,4.32-3.07,5.34-2.05,1.02-4.55,1.53-7.53,1.53-3.62,0-7.18-.78-9.55-2.35-2.37-1.57-3.56-4.3-3.56-8.2h-14.78c0,3.48.72,6.55,2.16,9.22,1.44,2.67,3.39,4.92,5.86,6.74,2.46,1.82,5.27,3.2,8.44,4.13,3.16.93,6.51,1.4,10.04,1.4s6.88-.36,10.04-1.08c3.16-.72,5.93-1.82,8.3-3.31,2.37-1.48,4.23-3.37,5.58-5.66,1.35-2.29,2.02-4.96,2.02-8.01,0-2.71-.49-4.96-1.46-6.74-.98-1.78-2.3-3.31-3.97-4.58"/>
  <polygon class="st1" points="35.94 34.51 45.42 23 23.7 23 14.22 34.51 35.94 34.51"/>
  <path class="st0" d="M579.03,21.81c-1.19-1.21-1.78-2.66-1.78-4.36s.59-3.15,1.78-4.35c1.19-1.2,2.63-1.8,4.32-1.8s3.14.6,4.34,1.81c1.2,1.21,1.8,2.66,1.8,4.34s-.6,3.16-1.8,4.36c-1.2,1.21-2.65,1.81-4.34,1.81s-3.13-.6-4.32-1.81M579.98,13.97c-.91.94-1.37,2.1-1.37,3.48s.46,2.54,1.37,3.49c.91.95,2.03,1.42,3.37,1.42s2.44-.47,3.36-1.42c.92-.94,1.38-2.11,1.38-3.49s-.46-2.54-1.38-3.48c-.92-.94-2.04-1.41-3.36-1.41s-2.46.47-3.37,1.41M584.4,20.75l-1.27-2.4h-.48v2.4h-1.43v-6.69h2.49c.65,0,1.19.21,1.63.62.44.41.66.92.66,1.52,0,.46-.12.86-.38,1.21-.25.35-.58.6-.99.76l1.42,2.59h-1.63ZM582.65,17.13h.82c.33,0,.59-.08.78-.24.18-.16.28-.39.28-.68s-.09-.52-.28-.68c-.18-.17-.44-.25-.78-.25h-.82v1.85Z"/>
</svg>