<?xml version="1.0" encoding="UTF-8"?>
<svg id="Layer_1" xmlns="http://www.w3.org/2000/svg" version="1.1" viewBox="0 0 2771.96 595.09">
  <!-- Generator: Adobe Illustrator 30.6.0, SVG Export Plug-In . SVG Version: 2.1.4 Build 109)  -->
  <defs>
    <style>
      .st0 {
        fill: #fcaf00;
      }

      .st1 {
        fill: #fff;
      }
    </style>
  </defs>
  <path class="st1" d="M2721.59,76.24c-5.73-5.83-8.57-12.81-8.57-20.99s2.84-15.17,8.57-20.95c5.73-5.78,12.66-8.67,20.8-8.67s15.12,2.89,20.9,8.72c5.78,5.83,8.67,12.81,8.67,20.9s-2.89,15.22-8.67,20.99c-5.78,5.83-12.76,8.72-20.9,8.72s-15.07-2.89-20.8-8.72M2726.16,38.49c-4.38,4.53-6.6,10.11-6.6,16.76s2.21,12.23,6.6,16.8c4.38,4.57,9.77,6.84,16.23,6.84s11.75-2.26,16.18-6.84c4.43-4.53,6.64-10.16,6.64-16.8s-2.21-12.23-6.64-16.76-9.82-6.79-16.18-6.79-11.84,2.26-16.23,6.79M2747.44,71.14l-6.12-11.56h-2.31v11.56h-6.89v-32.21h11.99c3.13,0,5.73,1.01,7.85,2.99s3.18,4.43,3.18,7.32c0,2.21-.58,4.14-1.83,5.83-1.2,1.69-2.79,2.89-4.77,3.66l6.84,12.47h-7.85l-.1-.05h.01ZM2739.02,53.71h3.95c1.59,0,2.84-.39,3.76-1.16.87-.77,1.35-1.88,1.35-3.27s-.43-2.5-1.35-3.27c-.87-.82-2.12-1.2-3.76-1.2h-3.95v8.91h0Z"/>
  <g>
    <g>
      <g>
        <path class="st1" d="M330.72,130.85V0h-66.59v86.14h-100.86l45.8,55.6h55.06v132.57c0,24.03,3.26,42.76,9.77,56.2,6.51,13.44,14.56,23.43,24.13,29.94,9.56,6.52,19.64,10.48,30.24,11.91,10.58,1.42,19.95,2.14,28.1,2.14,9.77,0,19.14-.41,28.1-1.22,8.95-.82,16.08-1.63,21.38-2.44v-58.65c-3.27,1.22-8.35,1.83-15.27,1.83h-18.33c-6.52,0-12.32-.6-17.41-1.82-5.1-1.22-9.47-3.76-13.13-7.61-3.67-3.85-6.42-9.43-8.25-16.74-1.83-7.3-2.75-17.04-2.75-29.22v-116.88h95.93l45.8-55.6h-104.9l-36.83,44.71h0Z"/>
        <path class="st1" d="M930.59,233.37c0,24.44-5.48,44.9-16.44,61.4-10.97,16.49-27.81,24.74-50.53,24.74-11.57,0-21.23-2.23-29-6.72-7.78-4.48-13.96-10.48-18.54-18.02-4.59-7.54-7.88-16.59-9.86-27.19-2-10.58-2.99-21.99-2.99-34.21V86.14h-65.18v169.22c0,19.55,1.29,35.85,3.88,48.88,2.59,13.04,7.27,24.85,14.05,35.43,7.97,11.82,18.84,21.19,32.59,28.1,13.76,6.92,30.8,10.39,51.13,10.39s38.87-3.97,54.42-11.92c15.55-7.94,27.7-19.64,36.48-35.13v39.71h65.18V86.14h-65.18v147.23h-.01Z"/>
        <path class="st1" d="M1264.74,237.08c-8.08-6.14-17.28-11.25-27.6-15.35-10.33-4.09-20.87-7.98-31.64-11.67-14.37-4.91-29.63-9.11-40.4-12.59-10.77-3.47-19.76-6.75-26.93-9.82-7.18-3.07-12.57-6.54-16.16-10.44-3.6-3.88-5.39-8.9-5.39-15.04,0-10.23,4.37-18.01,13.13-23.33,8.75-5.31,19.41-7.98,31.98-7.98,17.94,0,33.55,3.99,41.42,11.97,7.85,7.98,11.78,18.73,11.78,32.23h71.37c0-13.91-3.15-26.8-9.43-38.68-6.29-11.87-14.81-22.1-25.58-30.7-10.77-8.59-23.46-15.35-38.04-20.26-14.59-4.91-30.19-7.37-46.79-7.37s-31.3,1.75-45.44,5.22c-14.14,3.49-26.6,8.81-37.37,15.96-10.77,7.17-19.3,15.87-25.59,26.1-6.29,10.23-9.42,22.1-9.42,35.61,0,12.28,1.79,22.72,5.39,31.32,3.59,8.59,8.75,15.76,15.49,21.49,6.73,5.74,14.7,10.74,23.9,15.04,9.2,4.3,19.19,8.29,29.96,11.97,16.6,5.74,33.68,10.44,45.79,14.12,12.12,3.68,22.22,7.27,30.3,10.75,8.08,3.48,14.14,7.27,18.18,11.36,4.04,4.1,6.06,9.42,6.06,15.96,0,12.28-4.94,20.87-14.81,25.79-9.88,4.91-22,7.36-36.36,7.36-17.5,0-34.68-3.78-46.13-11.36-11.44-7.57-17.17-20.77-17.17-39.6h-71.37c0,16.79,3.47,31.62,10.43,44.52,6.95,12.89,16.38,23.74,28.28,32.54,11.89,8.81,25.47,15.46,40.73,19.95,15.25,4.5,31.41,6.76,48.48,6.76s33.21-1.75,48.47-5.22c15.25-3.48,28.61-8.8,40.06-15.96,11.44-7.16,20.42-16.27,26.93-27.32,6.5-11.05,9.76-23.95,9.76-38.68,0-13.09-2.35-23.95-7.07-32.54-4.71-8.59-11.11-15.96-19.19-22.1h-.01Z"/>
        <path class="st1" d="M1794.74,306.68c-8.81,8.15-22.61,12.22-41.41,12.22-13.71,0-25.46-2.44-35.24-7.33-9.79-4.89-17.82-11.4-24.08-19.55-6.27-8.15-10.87-17.72-13.81-28.72-2.94-10.99-4.4-22.6-4.4-34.82s1.46-23.72,4.4-34.52c2.94-10.79,7.54-20.36,13.81-28.71,6.26-8.34,13.9-14.97,22.91-19.85,9-4.89,19.77-7.33,32.31-7.33,21.93,0,37.68,4.79,47.28,14.36,9.59,9.57,15.36,22.1,17.33,37.57h64.03c-1.18-13.84-4.41-27.39-9.69-40.63-5.28-13.23-13.12-25.05-23.49-35.44-10.38-10.38-23.49-18.83-39.36-25.35-15.86-6.51-34.95-9.78-57.27-9.78s-41.91,4.18-58.74,12.53c-16.84,8.35-31.04,19.46-42.58,33.29-11.56,13.85-20.27,29.84-26.14,47.96-5.88,18.12-8.81,36.76-8.81,55.9s2.94,38.29,8.81,56.2c5.87,17.93,14.58,33.81,26.14,47.65,11.54,13.85,25.84,24.95,42.88,33.29s36.71,12.53,59.03,12.53c19.97,0,37.49-2.66,52.57-7.94,15.07-5.29,27.99-12.73,38.77-22.3,10.76-9.56,19.28-20.77,25.55-33.6,6.26-12.83,10.57-26.57,12.92-41.24h-64.02c-4.31,14.26-10.87,25.46-19.68,33.6h-.02Z"/>
        <path class="st1" d="M2172.17,123.41c-13.24-13.84-29.12-24.74-47.65-32.69-18.54-7.94-39.2-11.92-62-11.92s-43.38,3.97-61.7,11.92c-18.33,7.94-34.01,18.84-47.04,32.69-13.04,13.85-23.12,29.84-30.24,47.96-7.13,18.13-10.69,37.17-10.69,57.12s3.56,39.51,10.69,57.43c7.12,17.93,17.2,33.81,30.24,47.65,13.03,13.85,28.72,24.74,47.04,32.69,18.33,7.94,38.89,11.92,61.7,11.92s43.47-3.97,62-11.92c18.53-7.94,34.41-18.83,47.65-32.69,13.23-13.84,23.41-29.72,30.55-47.65,7.12-17.92,10.69-37.06,10.69-57.43s-3.57-38.99-10.69-57.12c-7.13-18.12-17.31-34.11-30.55-47.96ZM2140.71,263.31c-4.08,11-9.77,20.57-17.11,28.72-7.33,8.15-16.19,14.66-26.57,19.55-10.38,4.89-21.9,7.33-34.52,7.33s-24.04-2.44-34.22-7.33c-10.18-4.89-18.94-11.4-26.27-19.55-7.33-8.15-12.93-17.72-16.8-28.72-3.87-10.99-5.8-22.6-5.8-34.82s1.93-23.83,5.8-34.82c3.87-11,9.47-20.56,16.8-28.72,7.33-8.14,16.09-14.66,26.27-19.55s21.58-7.33,34.22-7.33,24.13,2.44,34.52,7.33c10.38,4.89,19.24,11.41,26.57,19.55,7.33,8.16,13.03,17.72,17.11,28.72,4.06,10.99,6.11,22.6,6.11,34.82s-2.05,23.83-6.11,34.82Z"/>
        <path class="st1" d="M2726.32,224.51c.2-6.72.3-12.52.3-17.41,0-18.33-3.36-35.22-10.08-50.71-6.72-15.47-16.09-29.02-28.1-40.63-12.02-11.61-26.07-20.67-42.15-27.19-16.09-6.51-33.3-9.78-51.62-9.78-22.4,0-42.36,3.77-59.87,11.3-17.52,7.54-32.18,18.02-43.99,31.47-11.82,13.44-20.88,29.32-27.19,47.65-6.32,18.33-9.47,38.09-9.47,59.26s2.95,40.32,8.86,58.65c5.9,18.33,14.76,34.21,26.58,47.65,11.81,13.44,26.57,24.03,44.29,31.77,17.72,7.73,38.58,11.61,62.62,11.61,18.33,0,34.82-2.55,49.49-7.64,14.66-5.09,27.49-11.91,38.49-20.46,11-8.56,19.86-18.43,26.58-29.63s11.09-22.91,13.13-35.13h-67.2c-4.08,10.19-10.39,18.94-18.94,26.27s-22.4,11-41.55,11c-13.85,0-25.46-1.93-34.82-5.8-9.37-3.87-17.01-9.17-22.91-15.88-5.91-6.72-10.29-14.56-13.13-23.52-2.85-8.95-4.69-18.53-5.5-28.71h203.44c1.62-9.36,2.54-17.41,2.75-24.13h-.01ZM2520.13,199.16c0-23.21,6.92-40.72,20.77-52.54,13.84-11.81,31.16-17.72,51.93-17.72s36.96,6.22,49.79,18.63c12.83,12.43,19.25,29.63,19.25,51.62h-141.74Z"/>
        <polygon class="st1" points="562.31 132.4 562.31 86.14 495.72 86.14 495.72 370.83 562.31 370.83 562.31 141.74 669.28 141.74 715.08 86.14 600.42 86.14 562.31 132.4"/>
        <polygon class="st1" points="2472.83 86.14 2358.16 86.14 2320.05 132.4 2320.05 86.14 2253.47 86.14 2253.47 370.83 2320.05 370.83 2320.05 141.74 2427.03 141.74 2472.83 86.14"/>
        <path class="st1" d="M1553.47,237.08c-8.08-6.14-17.28-11.25-27.6-15.35-10.33-4.09-20.87-7.98-31.64-11.67-14.37-4.91-29.63-9.11-40.4-12.59-10.77-3.47-19.76-6.75-26.93-9.82-7.19-3.07-12.57-6.54-16.16-10.44-3.6-3.88-5.39-8.9-5.39-15.04,0-10.23,4.38-18.01,13.13-23.33,8.75-5.31,19.41-7.98,31.98-7.98,17.94,0,33.56,3.99,41.42,11.97,7.84,7.98,11.78,18.73,11.78,32.23h71.37c0-13.91-3.15-26.8-9.43-38.68-6.29-11.87-14.81-22.1-25.59-30.7-10.77-8.59-23.46-15.35-38.04-20.26-14.59-4.91-30.19-7.37-46.79-7.37s-31.31,1.75-45.45,5.22c-14.14,3.49-26.59,8.81-37.37,15.96-10.77,7.17-19.3,15.87-25.58,26.1-6.29,10.23-9.42,22.1-9.42,35.61,0,12.28,1.79,22.72,5.39,31.32,3.59,8.59,8.75,15.76,15.49,21.49,6.73,5.74,14.69,10.74,23.9,15.04,9.19,4.3,19.19,8.29,29.96,11.97,16.6,5.74,33.67,10.44,45.79,14.12s22.22,7.27,30.3,10.75c8.08,3.48,14.14,7.27,18.18,11.36,4.04,4.1,6.06,9.42,6.06,15.96,0,12.28-4.95,20.87-14.82,25.79-9.88,4.91-22,7.36-36.36,7.36-17.5,0-34.68-3.78-46.13-11.36-11.45-7.57-17.17-20.77-17.17-39.6h-71.37c0,16.79,3.47,31.62,10.43,44.52,6.95,12.89,16.38,23.74,28.28,32.54,11.89,8.81,25.47,15.46,40.73,19.95,15.25,4.5,31.41,6.76,48.47,6.76s33.21-1.75,48.48-5.22c15.25-3.48,28.61-8.8,40.06-15.96,11.44-7.16,20.42-16.27,26.93-27.32,6.5-11.05,9.76-23.95,9.76-38.68,0-13.09-2.36-23.95-7.07-32.54s-11.11-15.96-19.19-22.1h0Z"/>
      </g>
      <polygon class="st0" points="104.9 141.74 150.7 86.14 45.8 86.14 0 141.74 104.9 141.74"/>
    </g>
    <g>
      <path class="st1" d="M1208.02,592.19v-92.49h17.31v12.31c5.77-10.19,17.31-15,28.08-15,11.54,0,22.69,5.58,27.69,17.5,7.31-13.27,19.23-17.5,30.96-17.5,16.15,0,31.92,10.96,31.92,35.19v59.99h-17.88v-58.07c0-12.11-5.96-21.15-19.61-21.15-12.69,0-21.34,10-21.34,23.27v55.96h-18.07v-58.07c0-11.92-5.77-21.15-19.61-21.15-12.88,0-21.54,9.62-21.54,23.46v55.76h-17.91Z"/>
      <path class="st1" d="M1392.17,539.31l25-3.65c5.58-.77,7.11-3.65,7.11-6.92,0-9.04-5.96-16.54-20-16.54-12.69,0-19.81,7.88-20.96,18.65l-17.31-4.04c1.92-17.69,17.88-30,37.88-30,27.69,0,38.46,15.77,38.46,33.84v46.34c0,8.08.77,12.88,1.15,15.19h-17.69c-.39-2.31-.96-5.77-.96-12.5-4.04,6.54-13.27,15.38-29.81,15.38-18.85,0-30.96-13.08-30.96-27.69,0-16.54,12.11-25.77,28.08-28.08v.02ZM1424.28,552.58v-4.23l-28.27,4.23c-7.69,1.15-13.46,5.58-13.46,13.84,0,6.92,5.77,13.46,15,13.46,14.81,0,26.73-7.11,26.73-27.31h0Z"/>
      <path class="st1" d="M1491.83,499.7h20v16.34h-20v48.07c0,8.46,3.46,12.69,12.88,12.69,2.31,0,5.58-.38,7.11-.77v15.38c-1.54.58-6.15,1.73-12.31,1.73-15.77,0-25.77-9.61-25.77-26.34v-50.76h-17.69v-16.34h5c10,0,14.23-6.15,14.23-14.23v-15h16.54v29.23h.01Z"/>
      <path class="st1" d="M1610.78,565.85c-5.19,16.34-20,29.23-41.53,29.23-24.81,0-46.54-18.08-46.54-49.42,0-29.04,20.96-48.84,44.23-48.84,28.46,0,44.42,19.61,44.42,48.46,0,2.31-.19,4.61-.38,5.77h-69.61c.38,16.54,12.31,28.08,27.88,28.08s22.5-8.27,25.96-18.65l15.58,5.38h0ZM1592.51,536.43c-.38-13.27-9.04-23.65-25.38-23.65-15.19,0-24.42,11.73-25.19,23.65h50.57Z"/>
      <path class="st1" d="M1683.25,517.97c-2.69-.39-5.38-.58-7.88-.58-15.19,0-25.38,8.08-25.38,28.46v46.34h-18.08v-92.49h17.69v16.15c6.73-14.23,18.27-17.69,27.69-17.69,2.5,0,5,.38,5.96.58v19.23h0Z"/>
      <path class="st1" d="M1707.77,451.63c7.31,0,13.08,5.77,13.08,13.08s-5.77,12.88-13.08,12.88-12.88-5.77-12.88-12.88,5.77-13.08,12.88-13.08ZM1698.92,592.19v-92.49h17.88v92.49h-17.88Z"/>
      <path class="st1" d="M1765.26,539.31l25-3.65c5.58-.77,7.12-3.65,7.12-6.92,0-9.04-5.96-16.54-20-16.54-12.69,0-19.81,7.88-20.96,18.65l-17.31-4.04c1.92-17.69,17.88-30,37.88-30,27.69,0,38.46,15.77,38.46,33.84v46.34c0,8.08.77,12.88,1.15,15.19h-17.69c-.39-2.31-.96-5.77-.96-12.5-4.04,6.54-13.27,15.38-29.8,15.38-18.85,0-30.96-13.08-30.96-27.69,0-16.54,12.11-25.77,28.07-28.08v.02ZM1797.37,552.58v-4.23l-28.27,4.23c-7.69,1.15-13.46,5.58-13.46,13.84,0,6.92,5.77,13.46,15,13.46,14.81,0,26.73-7.11,26.73-27.31h0Z"/>
      <path class="st1" d="M1840,592.19v-139.22h18.08v139.22h-18.08Z"/>
      <path class="st1" d="M2098.44,562.39c1.15,9.62,8.46,17.31,21.54,17.31,10.19,0,15.77-5.77,15.77-12.31,0-5.77-4.23-10.19-11.92-11.92l-15.77-3.46c-14.42-3.08-23.07-12.88-23.07-25.96,0-15.77,14.81-29.23,32.88-29.23,25.38,0,33.27,16.54,35.19,24.81l-15.96,5.96c-.77-4.81-4.61-15.38-19.23-15.38-9.23,0-15.38,5.96-15.38,12.31,0,5.58,3.46,9.61,10.58,11.15l15,3.27c16.73,3.65,25.57,13.84,25.57,27.5s-10.96,28.65-33.84,28.65c-25.38,0-36.15-16.35-37.69-26.92l16.34-5.77h-.01Z"/>
      <path class="st1" d="M2185.6,545.85c0,21.15,13.27,32.5,28.27,32.5,17.31,0,23.65-11.73,25.77-19.04l15.96,6.92c-4.42,13.27-17.69,28.84-41.73,28.84-26.92,0-46.73-21.15-46.73-49.23s20.19-49.03,46.53-49.03c24.61,0,37.3,15.38,41.15,29.42l-16.34,6.92c-2.31-9.04-9.04-19.61-24.81-19.61-14.61,0-28.07,10.77-28.07,32.3h0Z"/>
      <path class="st1" d="M2282.32,451.63c7.31,0,13.07,5.77,13.07,13.08s-5.77,12.88-13.07,12.88-12.88-5.77-12.88-12.88,5.77-13.08,12.88-13.08ZM2273.48,592.19v-92.49h17.88v92.49h-17.88Z"/>
      <path class="st1" d="M2399.04,565.85c-5.19,16.34-20,29.23-41.53,29.23-24.81,0-46.53-18.08-46.53-49.42,0-29.04,20.96-48.84,44.23-48.84,28.46,0,44.42,19.61,44.42,48.46,0,2.31-.19,4.61-.39,5.77h-69.61c.39,16.54,12.31,28.08,27.88,28.08s22.5-8.27,25.96-18.65l15.58,5.38h0ZM2380.77,536.43c-.38-13.27-9.04-23.65-25.38-23.65-15.19,0-24.42,11.73-25.19,23.65h50.57,0Z"/>
      <path class="st1" d="M2438.25,592.19h-18.08v-92.49h17.69v13.27c6.73-11.54,17.69-15.96,28.46-15.96,22.11,0,33.07,15.96,33.07,36.54v58.65h-18.07v-55.57c0-12.88-5.39-23.27-21.54-23.27-14.23,0-21.54,11.34-21.54,25.38v53.46h.01Z"/>
      <path class="st1" d="M2536.56,545.85c0,21.15,13.27,32.5,28.27,32.5,17.31,0,23.65-11.73,25.77-19.04l15.96,6.92c-4.42,13.27-17.69,28.84-41.73,28.84-26.92,0-46.73-21.15-46.73-49.23s20.19-49.03,46.53-49.03c24.61,0,37.31,15.38,41.15,29.42l-16.34,6.92c-2.31-9.04-9.04-19.61-24.81-19.61-14.61,0-28.07,10.77-28.07,32.3h0Z"/>
      <path class="st1" d="M2706.39,565.85c-5.19,16.34-20,29.23-41.53,29.23-24.81,0-46.53-18.08-46.53-49.42,0-29.04,20.96-48.84,44.23-48.84,28.46,0,44.42,19.61,44.42,48.46,0,2.31-.19,4.61-.38,5.77h-69.61c.38,16.54,12.31,28.08,27.88,28.08s22.5-8.27,25.96-18.65l15.58,5.38h-.02ZM2688.13,536.43c-.39-13.27-9.04-23.65-25.38-23.65-15.19,0-24.42,11.73-25.19,23.65h50.57,0Z"/>
      <polygon class="st1" points="2028.8 529.24 1996.55 529.24 1986.38 541.6 1986.38 491.82 1970.55 491.82 1970.55 529.24 1932.26 529.24 1944.91 544.61 1970.55 544.61 1970.55 570.14 1970.55 582.39 1986.38 582.39 1986.38 544.61 2016.15 544.61 2028.8 529.24"/>
    </g>
  </g>
</svg>