<?xml version="1.0" encoding="UTF-8"?>
<svg id="Layer_1" xmlns="http://www.w3.org/2000/svg" version="1.1" viewBox="0 0 1080 286.47">
  <!-- Generator: Adobe Illustrator 29.5.1, SVG Export Plug-In . SVG Version: 2.1.0 Build 141)  -->
  <defs>
    <style>
      .st0 {
        fill: #fff;
      }

      .st1 {
        fill: #fcb017;
      }
    </style>
  </defs>
  <g>
    <path class="st0" d="M157.23,214.19v41.98h-8.45v-41.98h-16.2v-7.96h40.92v7.96h-16.27Z"/>
    <path class="st0" d="M207.44,236.45h-6.2v19.72h-8.52v-49.94h19.16c9.65,0,15.64,6.69,15.64,15.14,0,7.11-4.3,12.54-11.27,14.23l11.27,20.57h-9.58l-10.49-19.72h0ZM210.33,228.99c5.21,0,8.59-3.03,8.59-7.61s-3.38-7.68-8.59-7.68h-9.09v15.28h9.09Z"/>
    <path class="st0" d="M248.29,238.78v-32.54h8.38v32.05c0,7.04,3.87,10.92,10.21,10.92s10.21-3.87,10.21-10.92v-32.05h8.45v32.54c0,12.04-8.17,18.45-18.66,18.45s-18.59-6.41-18.59-18.45h0Z"/>
    <path class="st0" d="M334.5,220.32c-.49-3.1-3.1-7.68-9.79-7.68-5.07,0-8.59,3.38-8.59,7.18,0,3.17,1.97,5.56,5.85,6.41l7.18,1.48c8.8,1.76,13.52,7.33,13.52,14.37,0,7.75-6.27,15.14-17.68,15.14-12.68,0-18.52-8.17-19.3-15.36l7.89-2.25c.49,5.21,4.23,10,11.41,10,5.99,0,9.09-3.03,9.09-6.9,0-3.24-2.39-5.85-6.69-6.76l-7.04-1.48c-7.61-1.55-12.68-6.55-12.68-14.02,0-8.38,7.68-15.28,16.97-15.28,11.76,0,16.34,7.18,17.47,12.75l-7.61,2.39h0Z"/>
    <path class="st0" d="M383.17,214.19v41.98h-8.45v-41.98h-16.2v-7.96h40.92v7.96h-16.27Z"/>
    <path class="st0" d="M418.67,256.17v-49.94h30.85v7.89h-22.4v13.24h20.28v7.68h-20.28v13.24h22.4v7.89h-30.85Z"/>
    <path class="st0" d="M471.99,256.17v-49.94h17.68c13.59,0,24.3,9.02,24.3,25.07s-10.85,24.86-24.37,24.86h-17.61ZM489.31,248.43c8.66,0,15.85-5.56,15.85-17.11s-7.11-17.33-15.78-17.33h-8.95v34.44h8.88Z"/>
    <path class="st0" d="M564.95,256.17v-49.94h8.59v49.94h-8.59Z"/>
    <path class="st0" d="M630.95,256.17l-24.65-37.82v37.82h-8.45v-49.94h10.78l22.68,35.43v-35.43h8.45v49.94h-8.81Z"/>
    <path class="st0" d="M689.27,220.32c-.49-3.1-3.1-7.68-9.79-7.68-5.07,0-8.59,3.38-8.59,7.18,0,3.17,1.97,5.56,5.85,6.41l7.18,1.48c8.8,1.76,13.52,7.33,13.52,14.37,0,7.75-6.27,15.14-17.68,15.14-12.68,0-18.52-8.17-19.3-15.36l7.89-2.25c.49,5.21,4.23,10,11.41,10,5.99,0,9.09-3.03,9.09-6.9,0-3.24-2.39-5.85-6.69-6.76l-7.04-1.48c-7.61-1.55-12.68-6.55-12.68-14.02,0-8.38,7.68-15.28,16.98-15.28,11.76,0,16.34,7.18,17.47,12.75l-7.61,2.39h-.01Z"/>
    <path class="st0" d="M737.93,214.19v41.98h-8.45v-41.98h-16.2v-7.96h40.92v7.96h-16.27,0Z"/>
    <path class="st0" d="M798.3,243.64h-21.13l-4.65,12.54h-8.95l19.44-49.94h9.79l19.44,49.94h-9.23l-4.72-12.54h.01ZM780.12,235.82h15.21l-7.61-20.43-7.61,20.43h0Z"/>
    <path class="st0" d="M831.26,256.17v-49.94h8.45v41.91h22.89v8.03h-31.34Z"/>
    <path class="st0" d="M882.67,256.17v-49.94h8.45v41.91h22.89v8.03h-31.34Z"/>
    <path class="st0" d="M934.09,256.17v-49.94h30.85v7.89h-22.4v13.24h20.28v7.68h-20.28v13.24h22.4v7.89h-30.85Z"/>
    <path class="st0" d="M1002.12,236.45h-6.2v19.72h-8.52v-49.94h19.16c9.65,0,15.64,6.69,15.64,15.14,0,7.11-4.3,12.54-11.27,14.23l11.27,20.57h-9.58l-10.49-19.72h0ZM1005.01,228.99c5.21,0,8.59-3.03,8.59-7.61s-3.38-7.68-8.59-7.68h-9.09v15.28h9.09Z"/>
  </g>
  <g>
    <g>
      <path class="st0" d="M150.12,71.03V22.98h-24.45v31.63h-37.04l16.82,20.42h20.22v48.68c0,8.83,1.2,15.7,3.59,20.64s5.35,8.6,8.86,10.99,7.21,3.85,11.11,4.37c3.89.52,7.33.79,10.32.79,3.59,0,7.03-.15,10.32-.45,3.29-.3,5.91-.6,7.85-.9v-21.54c-1.2.45-3.07.67-5.61.67h-6.73c-2.39,0-4.53-.22-6.39-.67-1.87-.45-3.48-1.38-4.82-2.79-1.35-1.42-2.36-3.46-3.03-6.15-.67-2.68-1.01-6.26-1.01-10.73v-42.92h35.23l16.82-20.42h-38.52l-13.52,16.42h-.02Z"/>
      <path class="st0" d="M370.4,108.68c0,8.97-2.01,16.49-6.04,22.55s-10.21,9.08-18.56,9.08c-4.25,0-7.8-.82-10.65-2.47-2.86-1.64-5.13-3.85-6.81-6.62-1.68-2.77-2.89-6.09-3.62-9.98-.73-3.89-1.1-8.07-1.1-12.56v-54.06h-23.93v62.14c0,7.18.47,13.16,1.43,17.95.95,4.79,2.67,9.12,5.16,13.01,2.93,4.34,6.92,7.78,11.97,10.32,5.05,2.54,11.31,3.82,18.78,3.82s14.27-1.46,19.98-4.38c5.71-2.92,10.17-7.21,13.39-12.9v14.58h23.94V54.62h-23.94v54.06h0Z"/>
      <path class="st0" d="M493.11,110.04c-2.97-2.25-6.35-4.13-10.14-5.64-3.79-1.5-7.66-2.93-11.62-4.28-5.28-1.8-10.88-3.34-14.84-4.62-3.96-1.27-7.25-2.48-9.89-3.61s-4.62-2.4-5.93-3.83c-1.32-1.43-1.98-3.27-1.98-5.52,0-3.76,1.61-6.61,4.82-8.57,3.21-1.95,7.13-2.93,11.74-2.93,6.59,0,12.32,1.46,15.21,4.4,2.88,2.93,4.33,6.88,4.33,11.84h26.21c0-5.11-1.16-9.84-3.46-14.2-2.31-4.36-5.44-8.12-9.39-11.27-3.96-3.16-8.62-5.64-13.97-7.44-5.36-1.8-11.09-2.71-17.18-2.71s-11.5.64-16.69,1.92-9.77,3.23-13.72,5.86c-3.96,2.63-7.09,5.83-9.4,9.58-2.31,3.76-3.46,8.12-3.46,13.08,0,4.51.66,8.34,1.98,11.5s3.21,5.79,5.69,7.89c2.47,2.11,5.4,3.94,8.78,5.52,3.38,1.58,7.05,3.04,11,4.4,6.1,2.11,12.37,3.83,16.82,5.19,4.45,1.35,8.16,2.67,11.13,3.95s5.19,2.67,6.67,4.17,2.23,3.46,2.23,5.86c0,4.51-1.82,7.66-5.44,9.47-3.63,1.8-8.08,2.7-13.35,2.7-6.43,0-12.74-1.39-16.94-4.17s-6.3-7.63-6.3-14.54h-26.21c0,6.17,1.28,11.61,3.83,16.35,2.55,4.73,6.02,8.72,10.38,11.95,4.36,3.23,9.35,5.68,14.96,7.33,5.6,1.65,11.54,2.48,17.8,2.48s12.2-.64,17.8-1.92c5.6-1.28,10.51-3.23,14.71-5.86,4.2-2.63,7.5-5.98,9.89-10.03,2.39-4.06,3.58-8.79,3.58-14.21,0-4.81-.86-8.79-2.59-11.95-1.73-3.16-4.08-5.86-7.05-8.12v-.02Z"/>
      <path class="st0" d="M687.73,135.6c-3.24,2.99-8.3,4.49-15.21,4.49-5.03,0-9.35-.9-12.94-2.69-3.6-1.79-6.54-4.18-8.84-7.18-2.3-2.99-3.99-6.51-5.07-10.55s-1.62-8.3-1.62-12.79.54-8.71,1.62-12.68c1.08-3.96,2.77-7.48,5.07-10.54s5.1-5.5,8.41-7.29c3.31-1.8,7.26-2.69,11.86-2.69,8.05,0,13.84,1.76,17.36,5.27,3.52,3.52,5.64,8.11,6.36,13.8h23.51c-.43-5.08-1.62-10.06-3.56-14.92s-4.82-9.2-8.63-13.01c-3.81-3.81-8.63-6.92-14.45-9.31-5.82-2.39-12.83-3.59-21.03-3.59s-15.39,1.54-21.57,4.6c-6.18,3.07-11.4,7.14-15.64,12.23s-7.44,10.96-9.6,17.61c-2.16,6.66-3.24,13.5-3.24,20.53s1.08,14.06,3.24,20.64,5.35,12.42,9.6,17.5c4.24,5.09,9.49,9.16,15.74,12.23,6.26,3.06,13.48,4.6,21.68,4.6,7.33,0,13.77-.98,19.3-2.92,5.53-1.94,10.28-4.67,14.24-8.19,3.95-3.51,7.08-7.63,9.38-12.34,2.3-4.71,3.88-9.76,4.75-15.14h-23.51c-1.58,5.24-3.99,9.35-7.23,12.34h.02Z"/>
      <path class="st0" d="M826.32,68.3c-4.86-5.08-10.69-9.09-17.5-12-6.81-2.92-14.4-4.38-22.77-4.38s-15.93,1.46-22.66,4.38c-6.73,2.92-12.49,6.92-17.27,12-4.79,5.09-8.49,10.96-11.1,17.61-2.62,6.66-3.93,13.65-3.93,20.98s1.31,14.51,3.93,21.09c2.61,6.58,6.32,12.42,11.1,17.5,4.78,5.09,10.54,9.09,17.27,12,6.73,2.92,14.28,4.38,22.66,4.38s15.96-1.46,22.77-4.38c6.8-2.92,12.64-6.92,17.5-12s8.6-10.91,11.22-17.5c2.62-6.58,3.93-13.61,3.93-21.09s-1.31-14.32-3.93-20.98c-2.62-6.65-6.36-12.52-11.22-17.61ZM814.77,119.67c-1.5,4.04-3.59,7.55-6.28,10.55-2.69,2.99-5.94,5.38-9.76,7.18-3.81,1.8-8.04,2.69-12.67,2.69s-8.83-.9-12.56-2.69c-3.74-1.79-6.95-4.18-9.65-7.18-2.69-2.99-4.75-6.51-6.17-10.55s-2.13-8.3-2.13-12.79.71-8.75,2.13-12.79,3.48-7.55,6.17-10.55c2.69-2.99,5.91-5.38,9.65-7.18,3.74-1.8,7.93-2.69,12.56-2.69s8.86.9,12.67,2.69,7.07,4.19,9.76,7.18,4.78,6.51,6.28,10.55c1.49,4.04,2.24,8.3,2.24,12.79s-.75,8.75-2.24,12.79Z"/>
      <path class="st0" d="M1029.81,105.43c.07-2.47.11-4.6.11-6.39,0-6.73-1.23-12.93-3.7-18.62-2.47-5.68-5.91-10.66-10.32-14.92-4.41-4.26-9.57-7.59-15.48-9.98s-12.23-3.59-18.96-3.59c-8.23,0-15.56,1.38-21.98,4.15-6.43,2.77-11.82,6.62-16.15,11.55-4.34,4.93-7.67,10.77-9.98,17.5-2.32,6.73-3.48,13.99-3.48,21.76s1.08,14.81,3.25,21.54c2.17,6.73,5.42,12.56,9.76,17.5s9.76,8.83,16.26,11.67c6.51,2.84,14.17,4.26,22.99,4.26,6.73,0,12.79-.94,18.17-2.81s10.09-4.37,14.13-7.51,7.29-6.77,9.76-10.88,4.07-8.41,4.82-12.9h-24.68c-1.5,3.74-3.81,6.96-6.95,9.65s-8.23,4.04-15.26,4.04c-5.09,0-9.35-.71-12.79-2.13s-6.25-3.37-8.41-5.83c-2.17-2.47-3.78-5.35-4.82-8.64-1.05-3.29-1.72-6.8-2.02-10.54h74.7c.6-3.44.93-6.39,1.01-8.86l.02-.02ZM954.1,96.12c0-8.52,2.54-14.95,7.63-19.29,5.08-4.34,11.44-6.51,19.07-6.51s13.57,2.28,18.28,6.84c4.71,4.56,7.07,10.88,7.07,18.96h-52.05Z"/>
      <polygon class="st0" points="235.17 71.6 235.17 54.62 210.72 54.62 210.72 159.16 235.17 159.16 235.17 75.03 274.45 75.03 291.27 54.62 249.16 54.62 235.17 71.6"/>
      <polygon class="st0" points="936.73 54.62 894.62 54.62 880.63 71.6 880.63 54.62 856.18 54.62 856.18 159.16 880.63 159.16 880.63 75.03 919.91 75.03 936.73 54.62"/>
      <path class="st0" d="M599.13,110.04c-2.97-2.25-6.35-4.13-10.14-5.64-3.79-1.5-7.66-2.93-11.62-4.28-5.28-1.8-10.88-3.34-14.84-4.62-3.96-1.27-7.26-2.48-9.89-3.61-2.64-1.13-4.62-2.4-5.93-3.83-1.32-1.43-1.98-3.27-1.98-5.52,0-3.76,1.61-6.61,4.82-8.57,3.21-1.95,7.13-2.93,11.74-2.93,6.59,0,12.32,1.46,15.21,4.4,2.88,2.93,4.32,6.88,4.32,11.84h26.21c0-5.11-1.16-9.84-3.46-14.2-2.31-4.36-5.44-8.12-9.4-11.27-3.96-3.16-8.61-5.64-13.97-7.44s-11.09-2.71-17.18-2.71-11.5.64-16.69,1.92-9.77,3.23-13.72,5.86c-3.96,2.63-7.09,5.83-9.39,9.58-2.31,3.76-3.46,8.12-3.46,13.08,0,4.51.66,8.34,1.98,11.5s3.21,5.79,5.69,7.89c2.47,2.11,5.4,3.94,8.78,5.52,3.38,1.58,7.05,3.04,11,4.4,6.1,2.11,12.36,3.83,16.82,5.19,4.45,1.35,8.16,2.67,11.13,3.95,2.97,1.28,5.19,2.67,6.67,4.17s2.23,3.46,2.23,5.86c0,4.51-1.82,7.66-5.44,9.47-3.63,1.8-8.08,2.7-13.35,2.7-6.43,0-12.74-1.39-16.94-4.17s-6.3-7.63-6.3-14.54h-26.21c0,6.17,1.28,11.61,3.83,16.35,2.55,4.73,6.02,8.72,10.38,11.95,4.37,3.23,9.35,5.68,14.96,7.33,5.6,1.65,11.54,2.48,17.8,2.48s12.2-.64,17.8-1.92,10.51-3.23,14.71-5.86,7.5-5.98,9.89-10.03c2.39-4.06,3.59-8.79,3.59-14.21,0-4.81-.87-8.79-2.6-11.95-1.73-3.16-4.08-5.86-7.05-8.12v-.02Z"/>
    </g>
    <polygon class="st1" points="67.2 75.03 84.02 54.62 45.5 54.62 28.68 75.03 67.2 75.03"/>
  </g>
  <path class="st0" d="M1031.31,51.65c-2.11-2.14-3.17-4.72-3.17-7.74s1.05-5.6,3.17-7.73c2.11-2.13,4.67-3.2,7.67-3.2s5.57,1.07,7.7,3.21,3.2,4.71,3.2,7.71-1.07,5.6-3.2,7.74-4.7,3.21-7.7,3.21-5.56-1.07-7.67-3.21M1033,37.74c-1.62,1.67-2.43,3.73-2.43,6.17s.81,4.51,2.43,6.19c1.62,1.68,3.61,2.52,5.98,2.52s4.34-.84,5.97-2.52,2.44-3.74,2.44-6.19-.81-4.5-2.44-6.17c-1.63-1.67-3.62-2.5-5.97-2.5s-4.36.83-5.98,2.5M1040.84,49.77l-2.25-4.26h-.86v4.26h-2.55v-11.87h4.41c1.15,0,2.11.37,2.89,1.1s1.17,1.63,1.17,2.69c0,.81-.22,1.52-.67,2.15-.44.62-1.03,1.07-1.76,1.35l2.52,4.59h-2.9ZM1037.73,43.35h1.45c.59,0,1.05-.14,1.38-.43s.49-.68.49-1.2-.16-.92-.49-1.21c-.33-.3-.78-.44-1.38-.44h-1.45v3.29h0Z"/>
</svg>