<?xml version="1.0" encoding="UTF-8"?>
<svg id="Layer_1" xmlns="http://www.w3.org/2000/svg" version="1.1" viewBox="0 0 2772.41 595.09">
  <!-- Generator: Adobe Illustrator 30.6.0, SVG Export Plug-In . SVG Version: 2.1.4 Build 109)  -->
  <defs>
    <style>
      .st0 {
        fill: #3b4b5c;
      }

      .st1 {
        fill: #fcaf00;
      }

      .st2 {
        fill: #fbb118;
      }

      .st3 {
        fill: #3a4b5c;
      }
    </style>
  </defs>
  <g>
    <path class="st0" d="M330.75,131.38V.53h-66.58v86.15h-100.86l45.79,55.57h55.06v132.59c0,24.05,3.26,42.75,9.78,56.22,6.52,13.48,14.56,23.4,24.13,29.92,9.56,6.52,19.63,10.51,30.21,11.88,10.58,1.45,19.92,2.17,28.11,2.17,9.78,0,19.13-.44,28.11-1.23,8.98-.8,16.08-1.67,21.37-2.46v-58.69c-3.26,1.23-8.33,1.81-15.29,1.81h-18.33c-6.52,0-12.32-.58-17.39-1.81s-9.49-3.77-13.11-7.61c-3.7-3.84-6.45-9.42-8.26-16.74-1.81-7.32-2.75-17.03-2.75-29.2v-116.87h95.93l45.79-55.57h-104.91l-36.81,44.7h0v.02h.01Z"/>
    <path class="st0" d="M930.74,233.9c0,24.42-5.51,44.92-16.45,61.44s-27.82,24.71-50.57,24.71c-11.59,0-21.23-2.25-28.98-6.74s-13.98-10.51-18.55-18.04c-4.56-7.54-7.9-16.59-9.85-27.17-2.03-10.58-2.97-22.03-2.97-34.2V86.68h-65.21v169.25c0,19.56,1.3,35.86,3.91,48.91,2.61,13.04,7.25,24.85,14.06,35.43,7.97,11.81,18.84,21.16,32.6,28.11,13.77,6.96,30.79,10.36,51.15,10.36s38.91-3.99,54.41-11.88c15.58-7.97,27.68-19.63,36.52-35.14v39.7h65.21V86.68h-65.21v147.23h-.07Z"/>
    <path class="st0" d="M1264.96,237.67c-8.11-6.16-17.32-11.23-27.61-15.36-10.36-4.06-20.87-7.97-31.66-11.66-14.35-4.93-29.63-9.13-40.43-12.61s-19.78-6.74-26.95-9.85c-7.17-3.04-12.53-6.52-16.16-10.43-3.62-3.91-5.36-8.91-5.36-15.07,0-10.22,4.35-18.04,13.11-23.33,8.77-5.29,19.42-7.97,31.95-7.97,17.97,0,33.55,3.98,41.44,11.95,7.82,7.97,11.81,18.77,11.81,32.24h71.37c0-13.91-3.12-26.81-9.42-38.69-6.3-11.88-14.78-22.1-25.58-30.72s-23.47-15.36-38.04-20.29c-14.56-4.93-30.21-7.39-46.8-7.39s-31.3,1.74-45.43,5.22-26.59,8.84-37.39,15.94c-10.8,7.17-19.27,15.87-25.58,26.08-6.3,10.22-9.42,22.1-9.42,35.65,0,12.32,1.81,22.75,5.36,31.3,3.55,8.62,8.77,15.79,15.51,21.52,6.74,5.72,14.71,10.72,23.91,15.07,9.2,4.27,19.2,8.26,30,11.95,16.59,5.72,33.69,10.43,45.79,14.13,12.1,3.7,22.24,7.25,30.29,10.72,8.11,3.48,14.13,7.24,18.19,11.38,4.06,4.13,6.09,9.42,6.09,15.94,0,12.24-4.93,20.87-14.78,25.79-9.85,4.93-22.03,7.39-36.37,7.39-17.53,0-34.71-3.77-46.15-11.37-11.45-7.54-17.17-20.79-17.17-39.63h-71.37c0,16.81,3.48,31.59,10.43,44.56,6.96,12.9,16.37,23.76,28.26,32.53,11.88,8.84,25.5,15.43,40.72,19.92,15.29,4.49,31.44,6.74,48.47,6.74s33.18-1.74,48.47-5.22c15.29-3.48,28.62-8.77,40.07-15.94s20.43-16.3,26.95-27.32c6.52-11.09,9.78-23.98,9.78-38.69,0-13.11-2.39-23.98-7.1-32.53-4.71-8.62-11.09-15.94-19.2-22.1"/>
    <path class="st0" d="M1795.03,307.3c-8.84,8.19-22.61,12.24-41.44,12.24-13.69,0-25.43-2.46-35.21-7.32s-17.82-11.37-24.05-19.56c-6.3-8.11-10.87-17.75-13.84-28.69-2.97-11.01-4.42-22.61-4.42-34.85s1.45-23.69,4.42-34.56c2.97-10.8,7.54-20.36,13.84-28.69,6.23-8.33,13.91-15,22.9-19.85,8.98-4.85,19.78-7.32,32.31-7.32,21.95,0,37.68,4.78,47.31,14.35,9.56,9.56,15.36,22.1,17.32,37.6h64.05c-1.16-13.84-4.42-27.39-9.71-40.65-5.29-13.26-13.11-25.07-23.47-35.43s-23.47-18.84-39.34-25.36-34.92-9.78-57.31-9.78-41.88,4.2-58.76,12.53c-16.81,8.33-31.01,19.49-42.6,33.33s-20.29,29.85-26.16,47.96-8.84,36.73-8.84,55.93,2.97,38.33,8.84,56.22c5.87,17.9,14.56,33.84,26.16,47.67,11.52,13.84,25.87,24.92,42.89,33.33,17.03,8.33,36.73,12.53,59.05,12.53,20,0,37.53-2.68,52.6-7.97s27.97-12.75,38.76-22.32c10.8-9.56,19.27-20.79,25.58-33.62,6.23-12.82,10.58-26.59,12.9-41.23h-64.05c-4.35,14.27-10.87,25.43-19.71,33.62"/>
    <path class="st0" d="M2172.52,123.99c-13.26-13.84-29.13-24.78-47.67-32.68-18.55-7.97-39.2-11.88-62.02-11.88s-43.4,3.98-61.73,11.88c-18.33,7.97-34.05,18.84-47.02,32.68-13.04,13.84-23.11,29.85-30.21,47.96s-10.72,37.17-10.72,57.17,3.55,39.49,10.72,57.46c7.1,17.9,17.17,33.84,30.21,47.67,13.04,13.84,28.69,24.78,47.02,32.68,18.33,7.97,38.91,11.88,61.73,11.88s43.47-3.99,62.02-11.88c18.55-7.97,34.42-18.84,47.67-32.68,13.26-13.84,23.4-29.71,30.58-47.67,7.1-17.9,10.72-37.1,10.72-57.46s-3.55-38.98-10.72-57.17c-7.1-18.11-17.32-34.13-30.58-47.96M2141.07,263.9c-4.06,11.01-9.78,20.58-17.1,28.69-7.32,8.19-16.16,14.64-26.59,19.56-10.36,4.85-21.88,7.32-34.49,7.32s-24.05-2.46-34.2-7.32c-10.22-4.85-18.91-11.37-26.3-19.56-7.32-8.11-12.9-17.75-16.81-28.69-3.84-11.01-5.8-22.61-5.8-34.85s1.96-23.84,5.8-34.85,9.49-20.58,16.81-28.69c7.32-8.11,16.08-14.64,26.3-19.56,10.22-4.85,21.59-7.32,34.2-7.32s24.13,2.46,34.49,7.32c10.36,4.85,19.27,11.38,26.59,19.56,7.32,8.19,13.04,17.75,17.1,28.69,4.06,11.01,6.09,22.61,6.09,34.85s-2.03,23.84-6.09,34.85"/>
    <path class="st0" d="M2726.78,225.06c.22-6.74.29-12.53.29-17.39,0-18.33-3.33-35.21-10.07-50.72s-16.08-29.05-28.11-40.65-26.08-20.65-42.17-27.17c-16.08-6.52-33.33-9.78-51.66-9.78-22.39,0-42.39,3.77-59.85,11.3-17.53,7.53-32.17,18.04-43.98,31.44s-20.87,29.34-27.17,47.67c-6.3,18.33-9.49,38.11-9.49,59.27s2.97,40.36,8.84,58.69,14.78,34.2,26.59,47.67c11.81,13.48,26.59,24.05,44.27,31.81,17.75,7.75,38.62,11.59,62.6,11.59,18.33,0,34.85-2.54,49.49-7.61,14.64-5.07,27.46-11.88,38.47-20.43s19.85-18.4,26.59-29.63,11.09-22.9,13.11-35.14h-67.24c-4.06,10.22-10.36,18.91-18.91,26.3-8.55,7.32-22.39,11.01-41.59,11.01-13.84,0-25.43-1.96-34.85-5.8-9.35-3.84-17.03-9.2-22.9-15.87-5.94-6.74-10.29-14.56-13.11-23.55s-4.71-18.55-5.51-28.69h203.45c1.59-9.35,2.54-17.39,2.75-24.13M2520.51,199.7c0-23.19,6.96-40.72,20.79-52.53,13.84-11.81,31.16-17.75,51.95-17.75s36.95,6.23,49.78,18.62c12.82,12.46,19.27,29.63,19.27,51.66h-141.79Z"/>
    <polygon class="st0" points="562.38 132.98 562.38 86.68 495.8 86.68 495.8 371.42 562.38 371.42 562.38 142.32 669.4 142.32 715.19 86.68 600.49 86.68 562.38 132.98"/>
    <polygon class="st0" points="2473.2 86.68 2358.58 86.68 2320.47 132.98 2320.47 86.68 2253.81 86.68 2253.81 371.42 2320.47 371.42 2320.47 142.32 2427.41 142.32 2473.2 86.68"/>
    <path class="st0" d="M1553.69,237.67c-8.04-6.16-17.32-11.23-27.61-15.36-10.36-4.06-20.87-7.97-31.66-11.66-14.35-4.93-29.63-9.13-40.43-12.61s-19.78-6.74-26.95-9.85c-7.17-3.04-12.61-6.52-16.16-10.43-3.62-3.91-5.36-8.91-5.36-15.07,0-10.22,4.35-18.04,13.11-23.33,8.77-5.29,19.42-7.97,31.95-7.97,17.97,0,33.55,3.98,41.44,11.95,7.82,7.97,11.81,18.77,11.81,32.24h71.37c0-13.91-3.12-26.81-9.42-38.69-6.3-11.88-14.78-22.1-25.58-30.72-10.8-8.62-23.47-15.36-38.04-20.29-14.56-4.93-30.21-7.39-46.8-7.39s-31.3,1.74-45.43,5.22-26.59,8.84-37.39,15.94c-10.8,7.17-19.27,15.87-25.58,26.08-6.3,10.22-9.42,22.1-9.42,35.65,0,12.32,1.81,22.75,5.36,31.3,3.62,8.62,8.77,15.79,15.51,21.52,6.74,5.72,14.71,10.72,23.91,15.07,9.2,4.27,19.2,8.26,30,11.95,16.59,5.72,33.69,10.43,45.79,14.13,12.1,3.7,22.24,7.25,30.29,10.72,8.04,3.48,14.13,7.24,18.19,11.38,4.06,4.13,6.09,9.42,6.09,15.94,0,12.24-4.93,20.87-14.85,25.79-9.85,4.93-22.03,7.39-36.37,7.39-17.53,0-34.71-3.77-46.15-11.37-11.45-7.54-17.17-20.79-17.17-39.63h-71.37c0,16.81,3.48,31.59,10.43,44.56,6.96,12.9,16.37,23.76,28.26,32.53,11.88,8.84,25.5,15.43,40.72,19.92,15.29,4.49,31.44,6.74,48.47,6.74s33.18-1.74,48.47-5.22c15.29-3.48,28.62-8.77,40.07-15.94s20.43-16.3,26.95-27.32c6.52-11.09,9.78-23.98,9.78-38.69,0-13.11-2.39-23.98-7.1-32.53-4.71-8.62-11.09-15.94-19.2-22.1"/>
    <polygon class="st2" points="104.91 142.32 150.7 86.68 45.79 86.68 0 142.32 104.91 142.32"/>
  </g>
  <path class="st3" d="M2722.04,76.24c-5.73-5.83-8.57-12.81-8.57-20.99s2.84-15.17,8.57-20.95c5.73-5.78,12.66-8.67,20.8-8.67s15.12,2.89,20.9,8.72c5.78,5.83,8.67,12.81,8.67,20.9s-2.89,15.22-8.67,20.99c-5.78,5.83-12.76,8.72-20.9,8.72s-15.07-2.89-20.8-8.72M2726.61,38.49c-4.38,4.53-6.6,10.11-6.6,16.76s2.21,12.23,6.6,16.8c4.38,4.57,9.77,6.84,16.23,6.84s11.75-2.26,16.18-6.84c4.43-4.53,6.64-10.16,6.64-16.8s-2.21-12.23-6.64-16.76-9.82-6.79-16.18-6.79-11.84,2.26-16.23,6.79M2747.89,71.14l-6.12-11.56h-2.31v11.56h-6.89v-32.21h11.99c3.13,0,5.73,1.01,7.85,2.99s3.18,4.43,3.18,7.32c0,2.21-.58,4.14-1.83,5.83-1.2,1.69-2.79,2.89-4.77,3.66l6.84,12.47h-7.85l-.1-.05h.01ZM2739.47,53.71h3.95c1.59,0,2.84-.39,3.76-1.16.87-.77,1.35-1.88,1.35-3.27s-.43-2.5-1.35-3.27c-.87-.82-2.12-1.2-3.76-1.2h-3.95v8.91h0Z"/>
  <g>
    <g>
      <g>
        <path class="st3" d="M331.17,130.85V0h-66.59v86.14h-100.86l45.8,55.6h55.06v132.57c0,24.03,3.26,42.76,9.77,56.2,6.51,13.44,14.56,23.43,24.13,29.94,9.56,6.52,19.64,10.48,30.24,11.91,10.58,1.42,19.95,2.14,28.1,2.14,9.77,0,19.14-.41,28.1-1.22,8.95-.82,16.08-1.63,21.38-2.44v-58.65c-3.27,1.22-8.35,1.83-15.27,1.83h-18.33c-6.52,0-12.32-.6-17.41-1.82-5.1-1.22-9.47-3.76-13.13-7.61-3.67-3.85-6.42-9.43-8.25-16.74-1.83-7.3-2.75-17.04-2.75-29.22v-116.88h95.93l45.8-55.6h-104.9l-36.83,44.71h0Z"/>
        <path class="st3" d="M931.04,233.37c0,24.44-5.48,44.9-16.44,61.4-10.97,16.49-27.81,24.74-50.53,24.74-11.57,0-21.23-2.23-29-6.72-7.78-4.48-13.96-10.48-18.54-18.02-4.59-7.54-7.88-16.59-9.86-27.19-2-10.58-2.99-21.99-2.99-34.21V86.14h-65.18v169.22c0,19.55,1.29,35.85,3.88,48.88,2.59,13.04,7.27,24.85,14.05,35.43,7.97,11.82,18.84,21.19,32.59,28.1,13.76,6.92,30.8,10.39,51.13,10.39s38.87-3.97,54.42-11.92c15.55-7.94,27.7-19.64,36.48-35.13v39.71h65.18V86.14h-65.18v147.23h-.01Z"/>
        <path class="st3" d="M1265.19,237.08c-8.08-6.14-17.28-11.25-27.6-15.35-10.33-4.09-20.87-7.98-31.64-11.67-14.37-4.91-29.63-9.11-40.4-12.59-10.77-3.47-19.76-6.75-26.93-9.82-7.18-3.07-12.57-6.54-16.16-10.44-3.6-3.88-5.39-8.9-5.39-15.04,0-10.23,4.37-18.01,13.13-23.33,8.75-5.31,19.41-7.98,31.98-7.98,17.94,0,33.55,3.99,41.42,11.97,7.85,7.98,11.78,18.73,11.78,32.23h71.37c0-13.91-3.15-26.8-9.43-38.68-6.29-11.87-14.81-22.1-25.58-30.7-10.77-8.59-23.46-15.35-38.04-20.26-14.59-4.91-30.19-7.37-46.79-7.37s-31.3,1.75-45.44,5.22c-14.14,3.49-26.6,8.81-37.37,15.96-10.77,7.17-19.3,15.87-25.59,26.1-6.29,10.23-9.42,22.1-9.42,35.61,0,12.28,1.79,22.72,5.39,31.32,3.59,8.59,8.75,15.76,15.49,21.49,6.73,5.74,14.7,10.74,23.9,15.04,9.2,4.3,19.19,8.29,29.96,11.97,16.6,5.74,33.68,10.44,45.79,14.12,12.12,3.68,22.22,7.27,30.3,10.75,8.08,3.48,14.14,7.27,18.18,11.36,4.04,4.1,6.06,9.42,6.06,15.96,0,12.28-4.94,20.87-14.81,25.79-9.88,4.91-22,7.36-36.36,7.36-17.5,0-34.68-3.78-46.13-11.36-11.44-7.57-17.17-20.77-17.17-39.6h-71.37c0,16.79,3.47,31.62,10.43,44.52,6.95,12.89,16.38,23.74,28.28,32.54,11.89,8.81,25.47,15.46,40.73,19.95,15.25,4.5,31.41,6.76,48.48,6.76s33.21-1.75,48.47-5.22c15.25-3.48,28.61-8.8,40.06-15.96,11.44-7.16,20.42-16.27,26.93-27.32,6.5-11.05,9.76-23.95,9.76-38.68,0-13.09-2.35-23.95-7.07-32.54-4.71-8.59-11.11-15.96-19.19-22.1h-.01Z"/>
        <path class="st3" d="M1795.19,306.68c-8.81,8.15-22.61,12.22-41.41,12.22-13.71,0-25.46-2.44-35.24-7.33-9.79-4.89-17.82-11.4-24.08-19.55-6.27-8.15-10.87-17.72-13.81-28.72-2.94-10.99-4.4-22.6-4.4-34.82s1.46-23.72,4.4-34.52c2.94-10.79,7.54-20.36,13.81-28.71,6.26-8.34,13.9-14.97,22.91-19.85,9-4.89,19.77-7.33,32.31-7.33,21.93,0,37.68,4.79,47.28,14.36,9.59,9.57,15.36,22.1,17.33,37.57h64.03c-1.18-13.84-4.41-27.39-9.69-40.63-5.28-13.23-13.12-25.05-23.49-35.44-10.38-10.38-23.49-18.83-39.36-25.35-15.86-6.51-34.95-9.78-57.27-9.78s-41.91,4.18-58.74,12.53c-16.84,8.35-31.04,19.46-42.58,33.29-11.56,13.85-20.27,29.84-26.14,47.96-5.88,18.12-8.81,36.76-8.81,55.9s2.94,38.29,8.81,56.2c5.87,17.93,14.58,33.81,26.14,47.65,11.54,13.85,25.84,24.95,42.88,33.29s36.71,12.53,59.03,12.53c19.97,0,37.49-2.66,52.57-7.94,15.07-5.29,27.99-12.73,38.77-22.3,10.76-9.56,19.28-20.77,25.55-33.6,6.26-12.83,10.57-26.57,12.92-41.24h-64.02c-4.31,14.26-10.87,25.46-19.68,33.6h-.02Z"/>
        <path class="st3" d="M2172.62,123.41c-13.24-13.84-29.12-24.74-47.65-32.69-18.54-7.94-39.2-11.92-62-11.92s-43.38,3.97-61.7,11.92c-18.33,7.94-34.01,18.84-47.04,32.69-13.04,13.85-23.12,29.84-30.24,47.96-7.13,18.13-10.69,37.17-10.69,57.12s3.56,39.51,10.69,57.43c7.12,17.93,17.2,33.81,30.24,47.65,13.03,13.85,28.72,24.74,47.04,32.69,18.33,7.94,38.89,11.92,61.7,11.92s43.47-3.97,62-11.92c18.53-7.94,34.41-18.83,47.65-32.69,13.23-13.84,23.41-29.72,30.55-47.65,7.12-17.92,10.69-37.06,10.69-57.43s-3.57-38.99-10.69-57.12c-7.13-18.12-17.31-34.11-30.55-47.96ZM2141.16,263.31c-4.08,11-9.77,20.57-17.11,28.72-7.33,8.15-16.19,14.66-26.57,19.55-10.38,4.89-21.9,7.33-34.52,7.33s-24.04-2.44-34.22-7.33c-10.18-4.89-18.94-11.4-26.27-19.55-7.33-8.15-12.93-17.72-16.8-28.72-3.87-10.99-5.8-22.6-5.8-34.82s1.93-23.83,5.8-34.82c3.87-11,9.47-20.56,16.8-28.72,7.33-8.14,16.09-14.66,26.27-19.55s21.58-7.33,34.22-7.33,24.13,2.44,34.52,7.33c10.38,4.89,19.24,11.41,26.57,19.55,7.33,8.16,13.03,17.72,17.11,28.72,4.06,10.99,6.11,22.6,6.11,34.82s-2.05,23.83-6.11,34.82Z"/>
        <path class="st3" d="M2726.77,224.51c.2-6.72.3-12.52.3-17.41,0-18.33-3.36-35.22-10.08-50.71-6.72-15.47-16.09-29.02-28.1-40.63-12.02-11.61-26.07-20.67-42.15-27.19-16.09-6.51-33.3-9.78-51.62-9.78-22.4,0-42.36,3.77-59.87,11.3-17.52,7.54-32.18,18.02-43.99,31.47-11.82,13.44-20.88,29.32-27.19,47.65-6.32,18.33-9.47,38.09-9.47,59.26s2.95,40.32,8.86,58.65c5.9,18.33,14.76,34.21,26.58,47.65,11.81,13.44,26.57,24.03,44.29,31.77,17.72,7.73,38.58,11.61,62.62,11.61,18.33,0,34.82-2.55,49.49-7.64,14.66-5.09,27.49-11.91,38.49-20.46,11-8.56,19.86-18.43,26.58-29.63s11.09-22.91,13.13-35.13h-67.2c-4.08,10.19-10.39,18.94-18.94,26.27s-22.4,11-41.55,11c-13.85,0-25.46-1.93-34.82-5.8-9.37-3.87-17.01-9.17-22.91-15.88-5.91-6.72-10.29-14.56-13.13-23.52-2.85-8.95-4.69-18.53-5.5-28.71h203.44c1.62-9.36,2.54-17.41,2.75-24.13h-.01ZM2520.58,199.16c0-23.21,6.92-40.72,20.77-52.54,13.84-11.81,31.16-17.72,51.93-17.72s36.96,6.22,49.79,18.63c12.83,12.43,19.25,29.63,19.25,51.62h-141.74Z"/>
        <polygon class="st3" points="562.76 132.4 562.76 86.14 496.17 86.14 496.17 370.83 562.76 370.83 562.76 141.74 669.73 141.74 715.53 86.14 600.87 86.14 562.76 132.4"/>
        <polygon class="st3" points="2473.28 86.14 2358.61 86.14 2320.5 132.4 2320.5 86.14 2253.92 86.14 2253.92 370.83 2320.5 370.83 2320.5 141.74 2427.48 141.74 2473.28 86.14"/>
        <path class="st3" d="M1553.92,237.08c-8.08-6.14-17.28-11.25-27.6-15.35-10.33-4.09-20.87-7.98-31.64-11.67-14.37-4.91-29.63-9.11-40.4-12.59-10.77-3.47-19.76-6.75-26.93-9.82-7.19-3.07-12.57-6.54-16.16-10.44-3.6-3.88-5.39-8.9-5.39-15.04,0-10.23,4.38-18.01,13.13-23.33,8.75-5.31,19.41-7.98,31.98-7.98,17.94,0,33.56,3.99,41.42,11.97,7.84,7.98,11.78,18.73,11.78,32.23h71.37c0-13.91-3.15-26.8-9.43-38.68-6.29-11.87-14.81-22.1-25.59-30.7-10.77-8.59-23.46-15.35-38.04-20.26-14.59-4.91-30.19-7.37-46.79-7.37s-31.31,1.75-45.45,5.22c-14.14,3.49-26.59,8.81-37.37,15.96-10.77,7.17-19.3,15.87-25.58,26.1-6.29,10.23-9.42,22.1-9.42,35.61,0,12.28,1.79,22.72,5.39,31.32,3.59,8.59,8.75,15.76,15.49,21.49,6.73,5.74,14.69,10.74,23.9,15.04,9.19,4.3,19.19,8.29,29.96,11.97,16.6,5.74,33.67,10.44,45.79,14.12s22.22,7.27,30.3,10.75c8.08,3.48,14.14,7.27,18.18,11.36,4.04,4.1,6.06,9.42,6.06,15.96,0,12.28-4.95,20.87-14.82,25.79-9.88,4.91-22,7.36-36.36,7.36-17.5,0-34.68-3.78-46.13-11.36-11.45-7.57-17.17-20.77-17.17-39.6h-71.37c0,16.79,3.47,31.62,10.43,44.52,6.95,12.89,16.38,23.74,28.28,32.54,11.89,8.81,25.47,15.46,40.73,19.95,15.25,4.5,31.41,6.76,48.47,6.76s33.21-1.75,48.48-5.22c15.25-3.48,28.61-8.8,40.06-15.96,11.44-7.16,20.42-16.27,26.93-27.32,6.5-11.05,9.76-23.95,9.76-38.68,0-13.09-2.36-23.95-7.07-32.54s-11.11-15.96-19.19-22.1h0Z"/>
      </g>
      <polygon class="st1" points="105.35 141.74 151.15 86.14 46.25 86.14 .45 141.74 105.35 141.74"/>
    </g>
    <g>
      <path class="st3" d="M1208.47,592.19v-92.49h17.31v12.31c5.77-10.19,17.31-15,28.08-15,11.54,0,22.69,5.58,27.69,17.5,7.31-13.27,19.23-17.5,30.96-17.5,16.15,0,31.92,10.96,31.92,35.19v59.99h-17.88v-58.07c0-12.11-5.96-21.15-19.61-21.15-12.69,0-21.34,10-21.34,23.27v55.96h-18.07v-58.07c0-11.92-5.77-21.15-19.61-21.15-12.88,0-21.54,9.62-21.54,23.46v55.76h-17.91Z"/>
      <path class="st3" d="M1392.62,539.31l25-3.65c5.58-.77,7.11-3.65,7.11-6.92,0-9.04-5.96-16.54-20-16.54-12.69,0-19.81,7.88-20.96,18.65l-17.31-4.04c1.92-17.69,17.88-30,37.88-30,27.69,0,38.46,15.77,38.46,33.84v46.34c0,8.08.77,12.88,1.15,15.19h-17.69c-.39-2.31-.96-5.77-.96-12.5-4.04,6.54-13.27,15.38-29.81,15.38-18.85,0-30.96-13.08-30.96-27.69,0-16.54,12.11-25.77,28.08-28.08v.02ZM1424.73,552.58v-4.23l-28.27,4.23c-7.69,1.15-13.46,5.58-13.46,13.84,0,6.92,5.77,13.46,15,13.46,14.81,0,26.73-7.11,26.73-27.31h0Z"/>
      <path class="st3" d="M1492.28,499.7h20v16.34h-20v48.07c0,8.46,3.46,12.69,12.88,12.69,2.31,0,5.58-.38,7.11-.77v15.38c-1.54.58-6.15,1.73-12.31,1.73-15.77,0-25.77-9.61-25.77-26.34v-50.76h-17.69v-16.34h5c10,0,14.23-6.15,14.23-14.23v-15h16.54v29.23h.01Z"/>
      <path class="st3" d="M1611.23,565.85c-5.19,16.34-20,29.23-41.53,29.23-24.81,0-46.54-18.08-46.54-49.42,0-29.04,20.96-48.84,44.23-48.84,28.46,0,44.42,19.61,44.42,48.46,0,2.31-.19,4.61-.38,5.77h-69.61c.38,16.54,12.31,28.08,27.88,28.08s22.5-8.27,25.96-18.65l15.58,5.38h0ZM1592.96,536.43c-.38-13.27-9.04-23.65-25.38-23.65-15.19,0-24.42,11.73-25.19,23.65h50.57Z"/>
      <path class="st3" d="M1683.7,517.97c-2.69-.39-5.38-.58-7.88-.58-15.19,0-25.38,8.08-25.38,28.46v46.34h-18.08v-92.49h17.69v16.15c6.73-14.23,18.27-17.69,27.69-17.69,2.5,0,5,.38,5.96.58v19.23h0Z"/>
      <path class="st3" d="M1708.22,451.63c7.31,0,13.08,5.77,13.08,13.08s-5.77,12.88-13.08,12.88-12.88-5.77-12.88-12.88,5.77-13.08,12.88-13.08ZM1699.37,592.19v-92.49h17.88v92.49h-17.88Z"/>
      <path class="st3" d="M1765.71,539.31l25-3.65c5.58-.77,7.12-3.65,7.12-6.92,0-9.04-5.96-16.54-20-16.54-12.69,0-19.81,7.88-20.96,18.65l-17.31-4.04c1.92-17.69,17.88-30,37.88-30,27.69,0,38.46,15.77,38.46,33.84v46.34c0,8.08.77,12.88,1.15,15.19h-17.69c-.39-2.31-.96-5.77-.96-12.5-4.04,6.54-13.27,15.38-29.8,15.38-18.85,0-30.96-13.08-30.96-27.69,0-16.54,12.11-25.77,28.07-28.08v.02ZM1797.82,552.58v-4.23l-28.27,4.23c-7.69,1.15-13.46,5.58-13.46,13.84,0,6.92,5.77,13.46,15,13.46,14.81,0,26.73-7.11,26.73-27.31h0Z"/>
      <path class="st3" d="M1840.45,592.19v-139.22h18.08v139.22h-18.08Z"/>
      <path class="st3" d="M2098.89,562.39c1.15,9.62,8.46,17.31,21.54,17.31,10.19,0,15.77-5.77,15.77-12.31,0-5.77-4.23-10.19-11.92-11.92l-15.77-3.46c-14.42-3.08-23.07-12.88-23.07-25.96,0-15.77,14.81-29.23,32.88-29.23,25.38,0,33.27,16.54,35.19,24.81l-15.96,5.96c-.77-4.81-4.61-15.38-19.23-15.38-9.23,0-15.38,5.96-15.38,12.31,0,5.58,3.46,9.61,10.58,11.15l15,3.27c16.73,3.65,25.57,13.84,25.57,27.5s-10.96,28.65-33.84,28.65c-25.38,0-36.15-16.35-37.69-26.92l16.34-5.77h-.01Z"/>
      <path class="st3" d="M2186.05,545.85c0,21.15,13.27,32.5,28.27,32.5,17.31,0,23.65-11.73,25.77-19.04l15.96,6.92c-4.42,13.27-17.69,28.84-41.73,28.84-26.92,0-46.73-21.15-46.73-49.23s20.19-49.03,46.53-49.03c24.61,0,37.3,15.38,41.15,29.42l-16.34,6.92c-2.31-9.04-9.04-19.61-24.81-19.61-14.61,0-28.07,10.77-28.07,32.3h0Z"/>
      <path class="st3" d="M2282.77,451.63c7.31,0,13.07,5.77,13.07,13.08s-5.77,12.88-13.07,12.88-12.88-5.77-12.88-12.88,5.77-13.08,12.88-13.08ZM2273.93,592.19v-92.49h17.88v92.49h-17.88Z"/>
      <path class="st3" d="M2399.49,565.85c-5.19,16.34-20,29.23-41.53,29.23-24.81,0-46.53-18.08-46.53-49.42,0-29.04,20.96-48.84,44.23-48.84,28.46,0,44.42,19.61,44.42,48.46,0,2.31-.19,4.61-.39,5.77h-69.61c.39,16.54,12.31,28.08,27.88,28.08s22.5-8.27,25.96-18.65l15.58,5.38h0ZM2381.22,536.43c-.38-13.27-9.04-23.65-25.38-23.65-15.19,0-24.42,11.73-25.19,23.65h50.57,0Z"/>
      <path class="st3" d="M2438.7,592.19h-18.08v-92.49h17.69v13.27c6.73-11.54,17.69-15.96,28.46-15.96,22.11,0,33.07,15.96,33.07,36.54v58.65h-18.07v-55.57c0-12.88-5.39-23.27-21.54-23.27-14.23,0-21.54,11.34-21.54,25.38v53.46h.01Z"/>
      <path class="st3" d="M2537.01,545.85c0,21.15,13.27,32.5,28.27,32.5,17.31,0,23.65-11.73,25.77-19.04l15.96,6.92c-4.42,13.27-17.69,28.84-41.73,28.84-26.92,0-46.73-21.15-46.73-49.23s20.19-49.03,46.53-49.03c24.61,0,37.31,15.38,41.15,29.42l-16.34,6.92c-2.31-9.04-9.04-19.61-24.81-19.61-14.61,0-28.07,10.77-28.07,32.3h0Z"/>
      <path class="st3" d="M2706.84,565.85c-5.19,16.34-20,29.23-41.53,29.23-24.81,0-46.53-18.08-46.53-49.42,0-29.04,20.96-48.84,44.23-48.84,28.46,0,44.42,19.61,44.42,48.46,0,2.31-.19,4.61-.38,5.77h-69.61c.38,16.54,12.31,28.08,27.88,28.08s22.5-8.27,25.96-18.65l15.58,5.38h-.02ZM2688.58,536.43c-.39-13.27-9.04-23.65-25.38-23.65-15.19,0-24.42,11.73-25.19,23.65h50.57,0Z"/>
      <polygon class="st3" points="2029.25 529.24 1997 529.24 1986.83 541.6 1986.83 491.82 1971 491.82 1971 529.24 1932.71 529.24 1945.36 544.61 1971 544.61 1971 570.14 1971 582.39 1986.83 582.39 1986.83 544.61 2016.6 544.61 2029.25 529.24"/>
    </g>
  </g>
</svg>