<?xml version="1.0" encoding="UTF-8"?>
<svg id="Layer_1" data-name="Layer 1" xmlns="http://www.w3.org/2000/svg" viewBox="0 0 2772.4 1985.81">
  <defs>
    <style>
      .cls-1 {
        fill: #3b4b5c;
      }

      .cls-2 {
        isolation: isolate;
      }

      .cls-3 {
        fill: #fff;
      }

      .cls-4 {
        fill: #fbb118;
      }

      .cls-5 {
        fill: #3c4c5d;
      }
    </style>
  </defs>
  <g>
    <path class="cls-1" d="M330.75,1344.31v-130.85h-66.58v86.15h-100.86l45.79,55.57h55.06v132.59c0,24.05,3.26,42.75,9.78,56.22,6.52,13.48,14.56,23.4,24.13,29.92,9.56,6.52,19.63,10.51,30.21,11.88,10.58,1.45,19.92,2.17,28.11,2.17,9.78,0,19.13-.44,28.11-1.23,8.98-.8,16.08-1.67,21.37-2.46v-58.69c-3.26,1.23-8.33,1.81-15.29,1.81h-18.33c-6.52,0-12.32-.58-17.39-1.81-5.07-1.23-9.49-3.77-13.11-7.61-3.7-3.84-6.45-9.42-8.26-16.74-1.81-7.32-2.75-17.03-2.75-29.2v-116.87h95.93l45.79-55.57h-104.91l-36.81,44.7h0Z"/>
    <path class="cls-1" d="M930.74,1446.84c0,24.42-5.51,44.92-16.45,61.44-10.94,16.52-27.82,24.71-50.57,24.71-11.59,0-21.23-2.25-28.98-6.74-7.75-4.49-13.98-10.51-18.55-18.04-4.56-7.54-7.9-16.59-9.85-27.17-2.03-10.58-2.97-22.03-2.97-34.2v-147.23h-65.21v169.25c0,19.56,1.3,35.86,3.91,48.91,2.61,13.04,7.25,24.85,14.06,35.43,7.97,11.81,18.84,21.16,32.6,28.11,13.77,6.96,30.79,10.36,51.15,10.36s38.91-3.99,54.41-11.88c15.58-7.97,27.68-19.63,36.52-35.14v39.7h65.21v-284.74h-65.21v147.23h-.07Z"/>
    <path class="cls-1" d="M1264.96,1450.6c-8.11-6.16-17.32-11.23-27.61-15.36-10.36-4.06-20.87-7.97-31.66-11.66-14.35-4.93-29.63-9.13-40.43-12.61-10.8-3.48-19.78-6.74-26.95-9.85-7.17-3.04-12.53-6.52-16.16-10.43-3.62-3.91-5.36-8.91-5.36-15.07,0-10.22,4.35-18.04,13.11-23.33,8.77-5.29,19.42-7.97,31.95-7.97,17.97,0,33.55,3.98,41.44,11.95,7.82,7.97,11.81,18.77,11.81,32.24h71.37c0-13.91-3.12-26.81-9.42-38.69-6.3-11.88-14.78-22.1-25.58-30.72s-23.47-15.36-38.04-20.29c-14.56-4.93-30.21-7.39-46.8-7.39s-31.3,1.74-45.43,5.22c-14.13,3.48-26.59,8.84-37.39,15.94-10.8,7.17-19.27,15.87-25.58,26.08-6.3,10.22-9.42,22.1-9.42,35.65,0,12.32,1.81,22.75,5.36,31.3,3.55,8.62,8.77,15.79,15.51,21.52,6.74,5.72,14.71,10.72,23.91,15.07,9.2,4.27,19.2,8.26,30,11.95,16.59,5.72,33.69,10.43,45.79,14.13,12.1,3.7,22.24,7.25,30.29,10.72,8.11,3.48,14.13,7.24,18.19,11.38,4.06,4.13,6.09,9.42,6.09,15.94,0,12.24-4.93,20.87-14.78,25.79-9.85,4.93-22.03,7.39-36.37,7.39-17.53,0-34.71-3.77-46.15-11.37-11.45-7.54-17.17-20.79-17.17-39.63h-71.37c0,16.81,3.48,31.59,10.43,44.56,6.96,12.9,16.37,23.76,28.26,32.53,11.88,8.84,25.5,15.43,40.72,19.92,15.29,4.49,31.44,6.74,48.47,6.74s33.18-1.74,48.47-5.22c15.29-3.48,28.62-8.77,40.07-15.94,11.45-7.17,20.43-16.3,26.95-27.32,6.52-11.09,9.78-23.98,9.78-38.69,0-13.11-2.39-23.98-7.1-32.53-4.71-8.62-11.09-15.94-19.2-22.1"/>
    <path class="cls-1" d="M1795.03,1520.23c-8.84,8.19-22.61,12.24-41.44,12.24-13.69,0-25.43-2.46-35.21-7.32s-17.82-11.37-24.05-19.56c-6.3-8.11-10.87-17.75-13.84-28.69-2.97-11.01-4.42-22.61-4.42-34.85s1.45-23.69,4.42-34.56c2.97-10.8,7.54-20.36,13.84-28.69,6.23-8.33,13.91-15,22.9-19.85,8.98-4.85,19.78-7.32,32.31-7.32,21.95,0,37.68,4.78,47.31,14.35,9.56,9.56,15.36,22.1,17.32,37.6h64.05c-1.16-13.84-4.42-27.39-9.71-40.65-5.29-13.26-13.11-25.07-23.47-35.43-10.36-10.36-23.47-18.84-39.34-25.36-15.87-6.52-34.92-9.78-57.31-9.78s-41.88,4.2-58.76,12.53c-16.81,8.33-31.01,19.49-42.6,33.33-11.59,13.84-20.29,29.85-26.16,47.96-5.87,18.11-8.84,36.73-8.84,55.93s2.97,38.33,8.84,56.22c5.87,17.9,14.56,33.84,26.16,47.67,11.52,13.84,25.87,24.92,42.89,33.33,17.03,8.33,36.73,12.53,59.05,12.53,20,0,37.53-2.68,52.6-7.97,15.07-5.29,27.97-12.75,38.76-22.32,10.8-9.56,19.27-20.79,25.58-33.62,6.23-12.82,10.58-26.59,12.9-41.23h-64.05c-4.35,14.27-10.87,25.43-19.71,33.62"/>
    <path class="cls-1" d="M2172.52,1336.92c-13.26-13.84-29.13-24.78-47.67-32.68-18.55-7.97-39.2-11.88-62.02-11.88s-43.4,3.98-61.73,11.88c-18.33,7.97-34.05,18.84-47.02,32.68-13.04,13.84-23.11,29.85-30.21,47.96-7.1,18.11-10.72,37.17-10.72,57.17s3.55,39.49,10.72,57.46c7.1,17.9,17.17,33.84,30.21,47.67,13.04,13.84,28.69,24.78,47.02,32.68,18.33,7.97,38.91,11.88,61.73,11.88s43.47-3.99,62.02-11.88c18.55-7.97,34.42-18.84,47.67-32.68,13.26-13.84,23.4-29.71,30.58-47.67,7.1-17.9,10.72-37.1,10.72-57.46s-3.55-38.98-10.72-57.17c-7.1-18.11-17.32-34.13-30.58-47.96M2141.07,1476.83c-4.06,11.01-9.78,20.58-17.1,28.69-7.32,8.19-16.16,14.64-26.59,19.56-10.36,4.85-21.88,7.32-34.49,7.32s-24.05-2.46-34.2-7.32c-10.22-4.85-18.91-11.37-26.3-19.56-7.32-8.11-12.9-17.75-16.81-28.69-3.84-11.01-5.8-22.61-5.8-34.85s1.96-23.84,5.8-34.85,9.49-20.58,16.81-28.69c7.32-8.11,16.08-14.64,26.3-19.56,10.22-4.85,21.59-7.32,34.2-7.32s24.13,2.46,34.49,7.32c10.36,4.85,19.27,11.38,26.59,19.56,7.32,8.19,13.04,17.75,17.1,28.69,4.06,11.01,6.09,22.61,6.09,34.85s-2.03,23.84-6.09,34.85"/>
    <path class="cls-1" d="M2726.78,1438c.22-6.74.29-12.53.29-17.39,0-18.33-3.33-35.21-10.07-50.72-6.74-15.51-16.08-29.05-28.11-40.65s-26.08-20.65-42.17-27.17c-16.08-6.52-33.33-9.78-51.66-9.78-22.39,0-42.39,3.77-59.85,11.3-17.53,7.53-32.17,18.04-43.98,31.44-11.81,13.4-20.87,29.34-27.17,47.67-6.3,18.33-9.49,38.11-9.49,59.27s2.97,40.36,8.84,58.69c5.87,18.33,14.78,34.2,26.59,47.67,11.81,13.48,26.59,24.05,44.27,31.81,17.75,7.75,38.62,11.59,62.6,11.59,18.33,0,34.85-2.54,49.49-7.61,14.64-5.07,27.46-11.88,38.47-20.43,11.01-8.55,19.85-18.4,26.59-29.63,6.74-11.23,11.09-22.9,13.11-35.14h-67.24c-4.06,10.22-10.36,18.91-18.91,26.3-8.55,7.32-22.39,11.01-41.59,11.01-13.84,0-25.43-1.96-34.85-5.8-9.35-3.84-17.03-9.2-22.9-15.87-5.94-6.74-10.29-14.56-13.11-23.55s-4.71-18.55-5.51-28.69h203.45c1.59-9.35,2.54-17.39,2.75-24.13M2520.51,1412.64c0-23.19,6.96-40.72,20.79-52.53,13.84-11.81,31.16-17.75,51.95-17.75s36.95,6.23,49.78,18.62c12.82,12.46,19.27,29.63,19.27,51.66h-141.79Z"/>
    <polygon class="cls-1" points="562.38 1345.91 562.38 1299.61 495.8 1299.61 495.8 1584.35 562.38 1584.35 562.38 1355.26 669.4 1355.26 715.19 1299.61 600.49 1299.61 562.38 1345.91"/>
    <polygon class="cls-1" points="2473.2 1299.61 2358.58 1299.61 2320.47 1345.91 2320.47 1299.61 2253.81 1299.61 2253.81 1584.35 2320.47 1584.35 2320.47 1355.26 2427.41 1355.26 2473.2 1299.61"/>
    <path class="cls-1" d="M1553.69,1450.6c-8.04-6.16-17.32-11.23-27.61-15.36-10.36-4.06-20.87-7.97-31.66-11.66-14.35-4.93-29.63-9.13-40.43-12.61-10.8-3.48-19.78-6.74-26.95-9.85-7.17-3.04-12.61-6.52-16.16-10.43-3.62-3.91-5.36-8.91-5.36-15.07,0-10.22,4.35-18.04,13.11-23.33,8.77-5.29,19.42-7.97,31.95-7.97,17.97,0,33.55,3.98,41.44,11.95,7.82,7.97,11.81,18.77,11.81,32.24h71.37c0-13.91-3.12-26.81-9.42-38.69-6.3-11.88-14.78-22.1-25.58-30.72-10.8-8.62-23.47-15.36-38.04-20.29-14.56-4.93-30.21-7.39-46.8-7.39s-31.3,1.74-45.43,5.22c-14.13,3.48-26.59,8.84-37.39,15.94-10.8,7.17-19.27,15.87-25.58,26.08-6.3,10.22-9.42,22.1-9.42,35.65,0,12.32,1.81,22.75,5.36,31.3,3.62,8.62,8.77,15.79,15.51,21.52,6.74,5.72,14.71,10.72,23.91,15.07,9.2,4.27,19.2,8.26,30,11.95,16.59,5.72,33.69,10.43,45.79,14.13,12.1,3.7,22.24,7.25,30.29,10.72,8.04,3.48,14.13,7.24,18.19,11.38,4.06,4.13,6.09,9.42,6.09,15.94,0,12.24-4.93,20.87-14.85,25.79-9.85,4.93-22.03,7.39-36.37,7.39-17.53,0-34.71-3.77-46.15-11.37-11.45-7.54-17.17-20.79-17.17-39.63h-71.37c0,16.81,3.48,31.59,10.43,44.56,6.96,12.9,16.37,23.76,28.26,32.53,11.88,8.84,25.5,15.43,40.72,19.92,15.29,4.49,31.44,6.74,48.47,6.74s33.18-1.74,48.47-5.22c15.29-3.48,28.62-8.77,40.07-15.94,11.45-7.17,20.43-16.3,26.95-27.32,6.52-11.09,9.78-23.98,9.78-38.69,0-13.11-2.39-23.98-7.1-32.53-4.71-8.62-11.09-15.94-19.2-22.1"/>
    <polygon class="cls-4" points="104.91 1355.26 150.7 1299.61 45.79 1299.61 0 1355.26 104.91 1355.26"/>
  </g>
  <path class="cls-5" d="M2722.04,1289.18c-5.73-5.83-8.57-12.81-8.57-20.99s2.84-15.17,8.57-20.95c5.73-5.78,12.66-8.67,20.8-8.67s15.12,2.89,20.9,8.72c5.78,5.83,8.67,12.81,8.67,20.9s-2.89,15.22-8.67,20.99c-5.78,5.83-12.76,8.72-20.9,8.72s-15.07-2.89-20.8-8.72M2726.61,1251.43c-4.38,4.53-6.6,10.11-6.6,16.76s2.21,12.23,6.6,16.8c4.38,4.57,9.77,6.84,16.23,6.84s11.75-2.26,16.18-6.84c4.43-4.53,6.64-10.16,6.64-16.8s-2.21-12.23-6.64-16.76-9.82-6.79-16.18-6.79-11.84,2.26-16.23,6.79M2747.89,1284.07l-6.12-11.56h-2.31v11.56h-6.89v-32.21h11.99c3.13,0,5.73,1.01,7.85,2.99s3.18,4.43,3.18,7.32c0,2.21-.58,4.14-1.83,5.83-1.2,1.69-2.79,2.89-4.77,3.66l6.84,12.47h-7.85l-.1-.05ZM2739.47,1266.64h3.95c1.59,0,2.84-.39,3.76-1.16.87-.77,1.35-1.88,1.35-3.27s-.43-2.5-1.35-3.27c-.87-.82-2.12-1.2-3.76-1.2h-3.95v8.91Z"/>
  <rect class="cls-3" x="970.46" y="409.32" width="750.13" height="240.11"/>
  <g class="cls-2">
    <path class="cls-1" d="M165.82,1885.62v-190.32h25.75v189.11c0,50.29,24.95,78.06,72.02,78.06s72.02-27.76,72.02-78.06v-189.11h25.75v190.32c0,64.38-39.43,100.19-97.77,100.19s-97.77-34.6-97.77-100.19Z"/>
    <path class="cls-1" d="M678.02,1980.58l-172.61-253.49v253.49h-25.75v-285.27h35.41l164.56,243.43v-243.43h25.75v285.27h-27.36Z"/>
    <path class="cls-1" d="M826.89,1980.58v-285.27h25.75v285.27h-25.75Z"/>
    <path class="cls-1" d="M1160.44,1695.31h26.96l-109.84,285.27h-25.35l-108.24-285.27h27.36l94.15,254.69,94.96-254.69Z"/>
    <path class="cls-1" d="M1277.93,1980.58v-285.27h168.19v23.34h-142.43v107.43h129.96v23.34h-129.96v107.83h142.43v23.34h-168.19Z"/>
    <path class="cls-1" d="M1634.82,1857.06h-59.55v123.52h-25.75v-285.27h99.38c51.1,0,84.9,35,84.9,81.28,0,41.44-27.76,73.63-71.22,78.86l70.82,125.13h-29.77l-68.8-123.52ZM1644.88,1834.12c38.22,0,63.17-22.53,63.17-57.54s-24.95-58.34-63.17-58.34h-69.61v115.88h69.61Z"/>
    <path class="cls-1" d="M1983.67,1768.14c-6.44-28.97-26.15-55.53-69.61-55.53-33.8,0-65.18,22.53-65.18,56.33,0,25.75,16.09,43.45,45.06,50.29l43.46,10.06c44.66,10.86,71.62,36.21,71.62,76.45,0,43.46-37.02,80.07-94.55,80.07-62.37,0-97.77-41.04-102.2-84.9l23.74-7.64c3.22,37.02,31.79,69.61,78.46,69.61,43.86,0,69.21-24.14,69.21-55.12,0-26.96-18.51-45.87-51.1-53.51l-43.05-10.06c-38.22-8.45-65.99-33.4-65.99-73.63,0-43.86,42.65-80.47,89.73-80.47,58.74,0,84.5,33.4,92.94,70.01l-22.53,8.05Z"/>
    <path class="cls-1" d="M2110.8,1980.58v-285.27h25.75v285.27h-25.75Z"/>
    <path class="cls-1" d="M2351.41,1718.65v261.94h-25.75v-261.94h-100.59v-23.34h227.33v23.34h-100.99Z"/>
    <path class="cls-1" d="M2511.95,1695.31h30.18l82.08,139.62,82.48-139.62h29.77l-99.79,163.36v121.92h-24.95v-121.92l-99.79-163.36Z"/>
  </g>
  <path class="cls-4" d="M1987.9,871.42s-211.62,146.6-620.57,147.09c-408.95.49-620.92-145.62-620.92-145.62l-.43-285.33,616.41,284.94,625.07-288.97.43,287.89Z"/>
  <path class="cls-4" d="M2119.34,499.06l-14.2,6.56,21.2,9.79,76.26,35.26v189.85c17.16,8.72,28.93,26.46,28.93,47.01,0,3.35-.31,6.62-.92,9.79-2.43,12.89-9.56,24.09-19.51,31.83l4.02,16.1,36.43,146.19c-1.41.86-2.84,1.68-4.27,2.47-42.59,23.74-94.44,23.74-137,0-1.43-.78-2.86-1.61-4.27-2.47l36.43-146.17,4.02-16.12c-9.97-7.74-17.1-18.94-19.51-31.83-.61-3.17-.92-6.44-.92-9.79,0-20.55,11.77-38.3,28.91-47.01v-159.37l-167.58-77.47-176.75-81.7-448.21-207.19-11.91-5.25v12.87l401.06,185.39,235.83,109.01,46.8,21.63-7.01,3.25-14.18,6.54-25.54,11.81-625.03,288.95-616.45-284.95-280.61-129.72-21.19-9.79L1362.4,0l918.25,424.52-21.19,9.79-140.12,64.74Z"/>
  <g>
    <path class="cls-4" d="M1068.81,502.21c-.53-3.19-1.07-6.66-1.07-10.12,0-18.65,10.12-33.3,31.44-33.3s30.37,13.32,30.37,27.97c0,13.59-6.93,24.24-23.18,34.37l-30.9,19.18c-33.3,20.25-44.49,46.09-44.76,78.86h137.2v-32.24h-91.91c2.66-8.79,9.86-14.39,17.85-19.71l36.76-22.65c22.65-13.85,36.23-33.83,36.23-58.61,0-32.24-25.04-59.68-66.87-59.68s-67.67,29.57-67.67,62.34c0,4.26.53,9.06,1.07,11.72l35.43,1.86Z"/>
    <g>
      <path class="cls-4" d="M1200.14,524.85c0,24.51,3.73,47.96,16.52,67.14,12.52,18.65,32.23,31.17,60.74,31.17s48.75-12.52,61.01-31.17c12.52-19.18,16.78-42.63,16.78-67.14s-4.26-48.22-16.78-67.4c-12.25-18.65-32.23-31.17-61.01-31.17s-48.22,12.52-60.74,31.17c-12.79,19.18-16.52,42.89-16.52,67.4Z"/>
      <path class="cls-4" d="M1236.91,524.85c0-22.11,3.46-39.69,11.72-51.15,6.39-8.79,15.19-14.65,28.77-14.65s22.64,5.86,29.04,14.65c8.26,11.45,11.99,29.04,11.99,51.15s-3.73,39.69-11.99,51.15c-6.39,8.79-15.19,14.65-29.04,14.65s-22.38-5.86-28.77-14.65c-8.26-11.46-11.72-29.04-11.72-51.15Z"/>
    </g>
    <path class="cls-4" d="M1423.92,502.21c-.53-3.19-1.07-6.66-1.07-10.12,0-18.65,10.12-33.3,31.44-33.3s30.37,13.32,30.37,27.97c0,13.59-6.93,24.24-23.18,34.37l-30.9,19.18c-33.3,20.25-44.49,46.09-44.76,78.86h137.2v-32.24h-91.91c2.66-8.79,9.86-14.39,17.85-19.71l36.76-22.65c22.65-13.85,36.23-33.83,36.23-58.61,0-32.24-25.04-59.68-66.87-59.68s-67.67,29.57-67.67,62.34c0,4.26.53,9.06,1.07,11.72l35.43,1.86Z"/>
    <g>
      <path class="cls-4" d="M1697.25,435.6c-7.99-5.33-22.64-9.33-39.96-9.33-59.94,0-102.57,41.83-102.57,110.03,0,58.34,35.43,86.85,75.66,86.85s72.2-26.11,72.2-65.8-26.11-63.14-63.94-63.14c-23.71,0-40.23,10.39-47.15,22.11,3.73-35.7,28.24-58.08,63.67-58.08,12.26,0,23.71,3.73,31.7,7.19l10.39-29.84Z"/>
      <path class="cls-4" d="M1595.22,558.42c0-21.05,15.98-34.1,35.17-34.1s35.43,13.05,35.43,34.1-16.25,33.57-35.43,33.57-35.17-13.05-35.17-33.57Z"/>
    </g>
  </g>
</svg>